<svg width="1512" height="982" viewBox="0 0 1512 982" fill="none" xmlns="http://www.w3.org/2000/svg">
  <rect width="1512" height="982" fill="white"/>
  <g filter="url(#filter0_d_14_81)">
    <path fill-rule="evenodd" clip-rule="evenodd" d="M756 909C826.14 909 883 852.14 883 782C883 711.86 826.14 655 756 655C685.86 655 629 711.86 629 782C629 852.14 685.86 909 756 909ZM756 833.189C784.271 833.189 807.189 810.271 807.189 782C807.189 753.729 784.271 730.811 756 730.811C727.729 730.811 704.811 753.729 704.811 782C704.811 810.271 727.729 833.189 756 833.189Z" fill="#2DAEFD"/>
  </g>
  <g filter="url(#filter1_d_14_81)">
    <path fill-rule="evenodd" clip-rule="evenodd" d="M706 62C635.86 62 579 118.86 579 189C579 259.14 635.86 316 706 316C776.14 316 833 259.14 833 189C833 118.86 776.14 62 706 62ZM706 137.811C677.729 137.811 654.811 160.729 654.811 189C654.811 217.271 677.729 240.189 706 240.189C734.271 240.189 757.189 217.271 757.189 189C757.189 160.729 734.271 137.811 706 137.811Z" fill="#FF3155"/>
  </g>
  <g filter="url(#filter2_d_14_81)">
    <path fill-rule="evenodd" clip-rule="evenodd" d="M963.583 169.645C957.433 189.656 974.971 207 995.906 207V207C1016.84 207 1033.09 187.915 1047.21 172.466C1056.57 162.231 1070.04 155.811 1085 155.811C1099.96 155.811 1113.43 162.231 1122.79 172.466C1136.91 187.915 1153.16 207 1174.09 207V207C1195.03 207 1212.57 189.656 1206.42 169.645C1190.47 117.735 1142.14 80 1085 80C1027.86 80 979.534 117.735 963.583 169.645Z" fill="#FFED5E"/>
    <path fill-rule="evenodd" clip-rule="evenodd" d="M1292.42 185.355C1298.57 165.344 1281.03 148 1260.09 148V148C1239.16 148 1222.91 167.085 1208.79 182.534C1199.43 192.769 1185.96 199.189 1171 199.189C1156.04 199.189 1142.57 192.769 1133.21 182.534C1119.09 167.085 1102.84 148 1081.91 148V148C1060.97 148 1043.43 165.344 1049.58 185.355C1065.53 237.265 1113.86 275 1171 275C1228.14 275 1276.47 237.265 1292.42 185.355Z" fill="#FFED5E"/>
  </g>
  <g filter="url(#filter3_d_14_81)">
    <path fill-rule="evenodd" clip-rule="evenodd" d="M528.417 796.355C534.567 776.344 517.029 759 496.094 759V759C475.16 759 458.913 778.085 444.785 793.534C435.426 803.769 421.962 810.189 407 810.189C392.038 810.189 378.574 803.769 369.215 793.534C355.087 778.085 338.84 759 317.906 759V759C296.971 759 279.433 776.344 285.583 796.355C301.534 848.265 349.86 886 407 886C464.14 886 512.466 848.265 528.417 796.355Z" fill="#49F770"/>
    <path fill-rule="evenodd" clip-rule="evenodd" d="M199.583 780.645C193.433 800.656 210.971 818 231.906 818V818C252.84 818 269.087 798.915 283.215 783.466C292.574 773.231 306.038 766.811 321 766.811C335.962 766.811 349.426 773.231 358.785 783.466C372.913 798.915 389.16 818 410.094 818V818C431.029 818 448.567 800.656 442.417 780.645C426.466 728.735 378.14 691 321 691C263.86 691 215.534 728.735 199.583 780.645Z" fill="#49F770"/>
  </g>
  <g filter="url(#filter4_d_14_81)">
    <path fill-rule="evenodd" clip-rule="evenodd" d="M1130.58 517.645C1124.43 537.656 1141.97 555 1162.91 555V555C1183.84 555 1200.09 535.915 1214.21 520.466C1223.57 510.231 1237.04 503.811 1252 503.811C1266.96 503.811 1280.43 510.231 1289.79 520.466C1303.91 535.915 1320.16 555 1341.09 555V555C1362.03 555 1379.57 537.656 1373.42 517.645C1357.47 465.735 1309.14 428 1252 428C1194.86 428 1146.53 465.735 1130.58 517.645Z" fill="#2DAEFD"/>
    <path fill-rule="evenodd" clip-rule="evenodd" d="M1376.42 411.355C1382.57 391.344 1365.03 374 1344.09 374V374C1323.16 374 1306.91 393.085 1292.79 408.534C1283.43 418.769 1269.96 425.189 1255 425.189C1240.04 425.189 1226.57 418.769 1217.21 408.534C1203.09 393.085 1186.84 374 1165.91 374V374C1144.97 374 1127.43 391.344 1133.58 411.355C1149.53 463.265 1197.86 501 1255 501C1312.14 501 1360.47 463.265 1376.42 411.355Z" fill="#2DAEFD"/>
  </g>
  <g filter="url(#filter5_d_14_81)">
    <path fill-rule="evenodd" clip-rule="evenodd" d="M328.417 455.355C334.567 435.344 317.029 418 296.094 418V418C275.16 418 258.913 437.085 244.785 452.534C235.426 462.769 221.962 469.189 207 469.189C192.038 469.189 178.574 462.769 169.215 452.534C155.087 437.085 138.84 418 117.906 418V418C96.9709 418 79.4334 435.344 85.5828 455.355C101.534 507.265 149.86 545 207 545C264.14 545 312.466 507.265 328.417 455.355Z" fill="#FF3155"/>
    <path fill-rule="evenodd" clip-rule="evenodd" d="M82.5827 561.645C76.4334 581.656 93.9709 599 114.906 599V599C135.84 599 152.087 579.915 166.215 564.466C175.574 554.231 189.038 547.811 204 547.811C218.962 547.811 232.426 554.231 241.785 564.466C255.913 579.915 272.16 599 293.094 599V599C314.029 599 331.567 581.656 325.417 561.645C309.466 509.735 261.14 472 204 472C146.86 472 98.5343 509.735 82.5827 561.645Z" fill="#FF3155"/>
  </g>
  <g filter="url(#filter6_d_14_81)">
    <path fill-rule="evenodd" clip-rule="evenodd" d="M1049.48 455.217C1055.56 435.271 1038.1 418 1017.24 418V418C996.391 418 980.225 436.992 966.22 452.442C956.894 462.731 943.448 469.189 928.5 469.189C913.552 469.189 900.106 462.731 890.78 452.442C876.775 436.992 860.609 418 839.756 418V418C818.904 418 801.438 435.271 807.519 455.217C823.364 507.198 871.535 545 928.5 545C985.465 545 1033.64 507.198 1049.48 455.217Z" fill="#49F770"/>
    <path fill-rule="evenodd" clip-rule="evenodd" d="M1049.48 380.217C1055.56 360.271 1038.1 343 1017.24 343V343C996.391 343 980.225 361.992 966.22 377.442C956.894 387.731 943.448 394.189 928.5 394.189C913.552 394.189 900.106 387.731 890.78 377.442C876.775 361.992 860.609 343 839.756 343V343C818.904 343 801.438 360.271 807.519 380.217C823.364 432.198 871.535 470 928.5 470C985.465 470 1033.64 432.198 1049.48 380.217Z" fill="#49F770"/>
  </g>
  <g filter="url(#filter7_d_14_81)">
    <path fill-rule="evenodd" clip-rule="evenodd" d="M444.519 480.783C438.438 500.729 455.904 518 476.756 518V518C497.609 518 513.775 499.008 527.78 483.558C537.106 473.269 550.552 466.811 565.5 466.811C580.448 466.811 593.894 473.269 603.22 483.558C617.225 499.008 633.391 518 654.244 518V518C675.096 518 692.562 500.729 686.481 480.783C670.636 428.802 622.465 391 565.5 391C508.535 391 460.364 428.802 444.519 480.783Z" fill="#2DAEFD"/>
    <path fill-rule="evenodd" clip-rule="evenodd" d="M444.519 555.783C438.438 575.729 455.904 593 476.756 593V593C497.609 593 513.775 574.008 527.78 558.558C537.106 548.269 550.552 541.811 565.5 541.811C580.448 541.811 593.894 548.269 603.22 558.558C617.225 574.008 633.391 593 654.244 593V593C675.096 593 692.562 575.729 686.481 555.783C670.636 503.802 622.465 466 565.5 466C508.535 466 460.364 503.802 444.519 555.783Z" fill="#2DAEFD"/>
  </g>
  <g filter="url(#filter8_d_14_81)">
    <path fill-rule="evenodd" clip-rule="evenodd" d="M1325.48 699.217C1331.56 679.271 1314.1 662 1293.24 662V662C1272.39 662 1256.22 680.992 1242.22 696.442C1232.89 706.731 1219.45 713.189 1204.5 713.189C1189.55 713.189 1176.11 706.731 1166.78 696.442C1152.78 680.992 1136.61 662 1115.76 662V662C1094.9 662 1077.44 679.271 1083.52 699.217C1099.36 751.198 1147.53 789 1204.5 789C1261.47 789 1309.64 751.198 1325.48 699.217Z" fill="#FF3155"/>
    <path fill-rule="evenodd" clip-rule="evenodd" d="M1235.48 784.217C1241.56 764.271 1224.1 747 1203.24 747V747C1182.39 747 1166.22 765.992 1152.22 781.442C1142.89 791.731 1129.45 798.189 1114.5 798.189C1099.55 798.189 1086.11 791.731 1076.78 781.442C1062.78 765.992 1046.61 747 1025.76 747V747C1004.9 747 987.438 764.271 993.519 784.217C1009.36 836.198 1057.53 874 1114.5 874C1171.47 874 1219.64 836.198 1235.48 784.217Z" fill="#FF3155"/>
  </g>
  <g filter="url(#filter9_d_14_81)">
    <path fill-rule="evenodd" clip-rule="evenodd" d="M152.519 267.783C146.438 287.729 163.904 305 184.756 305V305C205.609 305 221.775 286.008 235.78 270.558C245.106 260.269 258.552 253.811 273.5 253.811C288.448 253.811 301.894 260.269 311.22 270.558C325.225 286.008 341.391 305 362.244 305V305C383.096 305 400.562 287.729 394.481 267.783C378.636 215.802 330.465 178 273.5 178C216.535 178 168.364 215.802 152.519 267.783Z" fill="#49F770"/>
    <path fill-rule="evenodd" clip-rule="evenodd" d="M242.519 186.783C236.438 206.729 253.904 224 274.756 224V224C295.609 224 311.775 205.008 325.78 189.558C335.106 179.269 348.552 172.811 363.5 172.811C378.448 172.811 391.894 179.269 401.22 189.558C415.225 205.008 431.391 224 452.244 224V224C473.096 224 490.562 206.729 484.481 186.783C468.636 134.802 420.465 97 363.5 97C306.535 97 258.364 134.802 242.519 186.783Z" fill="#49F770"/>
  </g>
  <defs>
    <filter id="filter0_d_14_81" x="629" y="655" width="259" height="259" filterUnits="userSpaceOnUse" color-interpolation-filters="sRGB">
      <feFlood flood-opacity="0" result="BackgroundImageFix"/>
      <feColorMatrix in="SourceAlpha" type="matrix" values="0 0 0 0 0 0 0 0 0 0 0 0 0 0 0 0 0 0 127 0" result="hardAlpha"/>
      <feOffset dx="5" dy="5"/>
      <feComposite in2="hardAlpha" operator="out"/>
      <feColorMatrix type="matrix" values="0 0 0 0 0.286275 0 0 0 0 0.968627 0 0 0 0 0.439216 0 0 0 1 0"/>
      <feBlend mode="normal" in2="BackgroundImageFix" result="effect1_dropShadow_14_81"/>
      <feBlend mode="normal" in="SourceGraphic" in2="effect1_dropShadow_14_81" result="shape"/>
    </filter>
    <filter id="filter1_d_14_81" x="579" y="62" width="259" height="259" filterUnits="userSpaceOnUse" color-interpolation-filters="sRGB">
      <feFlood flood-opacity="0" result="BackgroundImageFix"/>
      <feColorMatrix in="SourceAlpha" type="matrix" values="0 0 0 0 0 0 0 0 0 0 0 0 0 0 0 0 0 0 127 0" result="hardAlpha"/>
      <feOffset dx="5" dy="5"/>
      <feComposite in2="hardAlpha" operator="out"/>
      <feColorMatrix type="matrix" values="0 0 0 0 0.176471 0 0 0 0 0.682353 0 0 0 0 0.992157 0 0 0 1 0"/>
      <feBlend mode="normal" in2="BackgroundImageFix" result="effect1_dropShadow_14_81"/>
      <feBlend mode="normal" in="SourceGraphic" in2="effect1_dropShadow_14_81" result="shape"/>
    </filter>
    <filter id="filter2_d_14_81" x="962.337" y="80" width="336.326" height="200" filterUnits="userSpaceOnUse" color-interpolation-filters="sRGB">
      <feFlood flood-opacity="0" result="BackgroundImageFix"/>
      <feColorMatrix in="SourceAlpha" type="matrix" values="0 0 0 0 0 0 0 0 0 0 0 0 0 0 0 0 0 0 127 0" result="hardAlpha"/>
      <feOffset dx="5" dy="5"/>
      <feComposite in2="hardAlpha" operator="out"/>
      <feColorMatrix type="matrix" values="0 0 0 0 1 0 0 0 0 0.192157 0 0 0 0 0.333333 0 0 0 1 0"/>
      <feBlend mode="normal" in2="BackgroundImageFix" result="effect1_dropShadow_14_81"/>
      <feBlend mode="normal" in="SourceGraphic" in2="effect1_dropShadow_14_81" result="shape"/>
    </filter>
    <filter id="filter3_d_14_81" x="198.337" y="691" width="336.326" height="200" filterUnits="userSpaceOnUse" color-interpolation-filters="sRGB">
      <feFlood flood-opacity="0" result="BackgroundImageFix"/>
      <feColorMatrix in="SourceAlpha" type="matrix" values="0 0 0 0 0 0 0 0 0 0 0 0 0 0 0 0 0 0 127 0" result="hardAlpha"/>
      <feOffset dx="5" dy="5"/>
      <feComposite in2="hardAlpha" operator="out"/>
      <feColorMatrix type="matrix" values="0 0 0 0 0.176471 0 0 0 0 0.682353 0 0 0 0 0.992157 0 0 0 1 0"/>
      <feBlend mode="normal" in2="BackgroundImageFix" result="effect1_dropShadow_14_81"/>
      <feBlend mode="normal" in="SourceGraphic" in2="effect1_dropShadow_14_81" result="shape"/>
    </filter>
    <filter id="filter4_d_14_81" x="1129.34" y="374" width="253.326" height="186" filterUnits="userSpaceOnUse" color-interpolation-filters="sRGB">
      <feFlood flood-opacity="0" result="BackgroundImageFix"/>
      <feColorMatrix in="SourceAlpha" type="matrix" values="0 0 0 0 0 0 0 0 0 0 0 0 0 0 0 0 0 0 127 0" result="hardAlpha"/>
      <feOffset dx="5" dy="5"/>
      <feComposite in2="hardAlpha" operator="out"/>
      <feColorMatrix type="matrix" values="0 0 0 0 1 0 0 0 0 0.929412 0 0 0 0 0.368627 0 0 0 1 0"/>
      <feBlend mode="normal" in2="BackgroundImageFix" result="effect1_dropShadow_14_81"/>
      <feBlend mode="normal" in="SourceGraphic" in2="effect1_dropShadow_14_81" result="shape"/>
    </filter>
    <filter id="filter5_d_14_81" x="81.3369" y="418" width="253.326" height="186" filterUnits="userSpaceOnUse" color-interpolation-filters="sRGB">
      <feFlood flood-opacity="0" result="BackgroundImageFix"/>
      <feColorMatrix in="SourceAlpha" type="matrix" values="0 0 0 0 0 0 0 0 0 0 0 0 0 0 0 0 0 0 127 0" result="hardAlpha"/>
      <feOffset dx="5" dy="5"/>
      <feComposite in2="hardAlpha" operator="out"/>
      <feColorMatrix type="matrix" values="0 0 0 0 1 0 0 0 0 0.929412 0 0 0 0 0.368627 0 0 0 1 0"/>
      <feBlend mode="normal" in2="BackgroundImageFix" result="effect1_dropShadow_14_81"/>
      <feBlend mode="normal" in="SourceGraphic" in2="effect1_dropShadow_14_81" result="shape"/>
    </filter>
    <filter id="filter6_d_14_81" x="806.293" y="343" width="249.413" height="207" filterUnits="userSpaceOnUse" color-interpolation-filters="sRGB">
      <feFlood flood-opacity="0" result="BackgroundImageFix"/>
      <feColorMatrix in="SourceAlpha" type="matrix" values="0 0 0 0 0 0 0 0 0 0 0 0 0 0 0 0 0 0 127 0" result="hardAlpha"/>
      <feOffset dx="5" dy="5"/>
      <feComposite in2="hardAlpha" operator="out"/>
      <feColorMatrix type="matrix" values="0 0 0 0 0.176471 0 0 0 0 0.682353 0 0 0 0 0.992157 0 0 0 1 0"/>
      <feBlend mode="normal" in2="BackgroundImageFix" result="effect1_dropShadow_14_81"/>
      <feBlend mode="normal" in="SourceGraphic" in2="effect1_dropShadow_14_81" result="shape"/>
    </filter>
    <filter id="filter7_d_14_81" x="443.293" y="391" width="249.413" height="207" filterUnits="userSpaceOnUse" color-interpolation-filters="sRGB">
      <feFlood flood-opacity="0" result="BackgroundImageFix"/>
      <feColorMatrix in="SourceAlpha" type="matrix" values="0 0 0 0 0 0 0 0 0 0 0 0 0 0 0 0 0 0 127 0" result="hardAlpha"/>
      <feOffset dx="5" dy="5"/>
      <feComposite in2="hardAlpha" operator="out"/>
      <feColorMatrix type="matrix" values="0 0 0 0 1 0 0 0 0 0.929412 0 0 0 0 0.368627 0 0 0 1 0"/>
      <feBlend mode="normal" in2="BackgroundImageFix" result="effect1_dropShadow_14_81"/>
      <feBlend mode="normal" in="SourceGraphic" in2="effect1_dropShadow_14_81" result="shape"/>
    </filter>
    <filter id="filter8_d_14_81" x="992.293" y="662" width="339.413" height="217" filterUnits="userSpaceOnUse" color-interpolation-filters="sRGB">
      <feFlood flood-opacity="0" result="BackgroundImageFix"/>
      <feColorMatrix in="SourceAlpha" type="matrix" values="0 0 0 0 0 0 0 0 0 0 0 0 0 0 0 0 0 0 127 0" result="hardAlpha"/>
      <feOffset dx="5" dy="5"/>
      <feComposite in2="hardAlpha" operator="out"/>
      <feColorMatrix type="matrix" values="0 0 0 0 1 0 0 0 0 0.929412 0 0 0 0 0.368627 0 0 0 1 0"/>
      <feBlend mode="normal" in2="BackgroundImageFix" result="effect1_dropShadow_14_81"/>
      <feBlend mode="normal" in="SourceGraphic" in2="effect1_dropShadow_14_81" result="shape"/>
    </filter>
    <filter id="filter9_d_14_81" x="151.293" y="97" width="339.413" height="213" filterUnits="userSpaceOnUse" color-interpolation-filters="sRGB">
      <feFlood flood-opacity="0" result="BackgroundImageFix"/>
      <feColorMatrix in="SourceAlpha" type="matrix" values="0 0 0 0 0 0 0 0 0 0 0 0 0 0 0 0 0 0 127 0" result="hardAlpha"/>
      <feOffset dx="5" dy="5"/>
      <feComposite in2="hardAlpha" operator="out"/>
      <feColorMatrix type="matrix" values="0 0 0 0 1 0 0 0 0 0.929412 0 0 0 0 0.368627 0 0 0 1 0"/>
      <feBlend mode="normal" in2="BackgroundImageFix" result="effect1_dropShadow_14_81"/>
      <feBlend mode="normal" in="SourceGraphic" in2="effect1_dropShadow_14_81" result="shape"/>
    </filter>
  </defs>
</svg>
