<svg width="33" height="33" viewBox="0 0 33 33" fill="none" xmlns="http://www.w3.org/2000/svg">
<path d="M16.5 20.625C18.7782 20.625 20.625 18.7782 20.625 16.5C20.625 14.2218 18.7782 12.375 16.5 12.375C14.2218 12.375 12.375 14.2218 12.375 16.5C12.375 18.7782 14.2218 20.625 16.5 20.625Z" fill="#323232"/>
<path d="M23.1413 5.5L20.625 2.75H12.375L9.85875 5.5H2.75V27.5H30.25V5.5H23.1413ZM16.5 23.375C12.705 23.375 9.625 20.295 9.625 16.5C9.625 12.705 12.705 9.625 16.5 9.625C20.295 9.625 23.375 12.705 23.375 16.5C23.375 20.295 20.295 23.375 16.5 23.375Z" fill="#323232"/>
</svg>
