<svg width="33" height="33" viewBox="0 0 33 33" fill="none" xmlns="http://www.w3.org/2000/svg">
<path d="M28.875 2.75H4.125V27.5H12.375L16.5 31.625L20.625 27.5H28.875V2.75ZM17.875 24.75H15.125V22H17.875V24.75ZM20.7212 14.0937L19.4838 15.3588C18.4938 16.3625 17.875 17.1875 17.875 19.25H15.125V18.5625C15.125 17.05 15.7437 15.675 16.7337 14.6712L18.4388 12.9387C18.9475 12.4437 19.25 11.7562 19.25 11C19.25 9.4875 18.0125 8.25 16.5 8.25C14.9875 8.25 13.75 9.4875 13.75 11H11C11 7.96125 13.4613 5.5 16.5 5.5C19.5388 5.5 22 7.96125 22 11C22 12.21 21.505 13.31 20.7212 14.0937Z" fill="#323232"/>
</svg>
