<svg width="778" height="430" viewBox="0 0 778 430" fill="none" xmlns="http://www.w3.org/2000/svg">
<path d="M157.735 178.548C157.735 178.548 147.66 280.889 131.17 314.035C123.129 330.199 99.585 362.336 63.3407 354.294C27.0964 346.252 24.3605 291.213 27.523 264.698" stroke="#0F43F1" stroke-width="16"/>
<path d="M174.487 265.44C173.143 207.654 185.238 192.871 212.116 190.855C224.21 200.934 233.617 211.013 237.649 261.408C241.681 311.803 219.507 330.618 205.396 329.946C191.286 329.274 175.831 323.226 174.487 265.44Z" stroke="#0F43F1" stroke-width="16"/>
<path d="M257.135 184.138L300.81 265.442M300.81 265.442L296.107 351.449M300.81 265.442L353.221 184.138" stroke="#0F43F1" stroke-width="16"/>
<path d="M396.226 184.808V356.823L483.577 345.4" stroke="#0F43F1" stroke-width="16"/>
<path d="M538.698 106.467L501.07 259.668L463.442 122.594" stroke="#0F43F1" stroke-width="16"/>
<path d="M534.683 370.349L542.88 288.373M542.88 288.373L548.793 229.243C572.983 231.259 612.627 247.385 612.627 264.184C612.627 286.357 590.453 296.436 542.88 288.373ZM542.88 288.373C566.801 291.061 614.105 304.768 611.955 338.096C609.267 379.756 550.137 382.444 539.386 374.381" stroke="#0F43F1" stroke-width="16"/>
<path d="M624.05 241.337H723.496L632.113 366.316H699.306" stroke="#0F43F1" stroke-width="16"/>
<path d="M123.986 169.506C122.977 181.061 120.253 207.322 117.434 219.923C113.909 235.674 105.859 307.254 75.9909 309.686C52.0963 311.631 50.9155 285.576 53.312 272.305" stroke="#FFE231" stroke-width="16"/>
<path d="M195.991 260.737C195.991 247.971 195.991 225.125 202.039 226.469C204.278 226.469 207.817 231.71 209.43 252.674C211.446 278.88 210.774 296.35 205.398 294.334C200.023 292.318 195.991 273.504 195.991 260.737Z" stroke="#FFE231" stroke-width="16"/>
<path d="M305.046 153.932L355.58 170.62L435.719 173.874" stroke="#FFE231" stroke-width="16"/>
<path d="M251.131 130.506L295.756 150.734" stroke="#FFE231" stroke-width="16"/>
<path d="M419.745 184.807V319.193L466.78 306.427" stroke="#FFE231" stroke-width="16"/>
<path d="M511.15 112.512L501.071 154.172L490.992 118.559" stroke="#FFE231" stroke-width="16"/>
<path d="M621.325 310.46L622.669 286.942C628.269 289.63 638.124 296.349 638.124 301.725C638.124 307.1 626.925 309.788 621.325 310.46Z" stroke="#FFE231" stroke-width="16"/>
<path d="M568.748 265.795L568.748 260.028C573.501 261.246 582.938 264.104 582.659 265.795C582.38 267.486 573.524 266.871 568.748 265.795Z" stroke="#FFE231" stroke-width="16"/>
<path d="M680.455 352.79L730.178 357.494" stroke="#FFE231" stroke-width="16"/>
<path d="M632.115 266.197L668.4 263.509L632.115 311.888" stroke="#FFE231" stroke-width="16"/>
<path d="M704.129 424.603C690.466 407.683 645.503 380.285 620.325 381.453C588.853 382.914 583.73 382.608 559.577 371.653C535.424 360.698 506.148 354.49 506.148 348.647C506.148 342.804 507.246 332.214 525.909 335.136C544.573 338.057 559.943 355.951 567.994 342.804C569.758 339.924 568.078 334.552 564.313 327.832C564.564 329.293 564.847 333.237 563.968 337.327C562.87 342.439 553.722 340.979 550.428 340.613C547.793 340.321 546.458 330.997 546.12 326.372V302.27C529.6 281.813 509.505 260.792 506.148 256.259C499.927 247.86 499.193 235.871 504.684 232.523C506.436 231.454 511.165 234.778 517.24 240.191C534.004 255.13 561.014 285.985 563.968 284.377C567.994 282.186 582.266 271.961 587.755 272.692C593.245 273.422 592.879 274.883 597.27 274.883C601.662 274.883 602.028 272.327 606.053 271.961C610.079 271.596 616.666 274.883 620.325 274.883C623.985 274.883 623.985 272.692 628.376 272.692C632.768 272.692 652.856 294.771 662.41 311.035C668.631 321.625 685.414 328.034 690.222 331.119C695.346 334.405 714.6 351.425 736.699 368.366C747.213 376.427 761.899 383.986 770 389.911L704.129 424.603Z" fill="white"/>
<path d="M546.12 302.27C529.6 281.813 509.505 260.792 506.148 256.259C499.927 247.86 499.193 235.871 504.684 232.523C506.436 231.454 511.165 234.778 517.24 240.191C534.004 255.13 561.014 285.985 563.968 284.377C567.994 282.186 582.266 271.961 587.755 272.692C593.245 273.422 592.879 274.883 597.27 274.883C601.662 274.883 602.028 272.327 606.053 271.961C610.079 271.596 616.666 274.883 620.325 274.883C623.985 274.883 623.985 272.692 628.376 272.692C632.768 272.692 652.856 294.771 662.41 311.035C668.631 321.625 685.414 328.034 690.222 331.119C695.346 334.405 714.6 351.425 736.699 368.366C747.213 376.427 761.899 383.986 770 389.911L704.129 424.603C690.466 407.683 645.503 380.285 620.325 381.453C588.853 382.914 583.73 382.608 559.577 371.653C535.424 360.698 506.148 354.49 506.148 348.647C506.148 342.804 507.246 332.214 525.909 335.136C544.573 338.057 559.943 355.951 567.994 342.804C569.758 339.924 568.078 334.552 564.313 327.832M546.12 302.27V326.372C546.458 330.997 547.793 340.321 550.428 340.613C553.722 340.979 562.87 342.439 563.968 337.327C564.847 333.237 564.564 329.293 564.313 327.832M546.12 302.27C553.501 311.41 560.169 320.438 564.313 327.832" stroke="#FD2D46" stroke-width="8"/>
<path d="M491.284 85.74C491.284 77.7859 488.15 64.7412 469.349 64.7412C456.502 64.7412 448.354 74.9225 448.981 85.74C449.608 96.5576 457.755 106.421 470.602 107.057C483.45 107.693 491.284 93.6941 491.284 85.74Z" fill="#FF0000"/>
<path d="M476.289 95.1691C465.039 84.2976 459.224 46.627 437.609 39.4215C419.478 33.3773 383.382 130.564 377.694 164.569C379.211 129.048 374.509 57.0937 343.565 53.4531C312.621 49.8124 284.408 105.029 274.169 133.093C268.608 90.3654 249.217 4.53153 216.15 3.01458C183.083 1.49764 150.167 118.682 142.962 187.324C136.895 226.764 133.209 294.757 111.109 326.503C90.2522 356.463 48.9182 347.741 43.6092 329.158C39.3621 314.292 46.1689 173.671 35.6458 131.576C27.2084 97.8239 22.1459 76.5867 0 76.5867" stroke="#FF0000" stroke-width="5" stroke-dasharray="10 10"/>
<path d="M292.829 120.006L286.654 125.761L292.829 130.94L284.78 132.306V140.938L279.576 135.399L277.703 143.24L273.123 134.752L269.029 139.931L267.641 135.399L262.437 137.629V131.587L254.526 133.457L260.494 126.912L253.139 124.466L259.731 123.099L253.139 114.467L261.188 116.769L260.494 110.08L266.67 114.467L267.641 106.195L273.123 114.467L276.245 108.137L278.743 115.978L287.556 112.525L283.531 120.006H292.829Z" fill="#FF0000"/>
<path d="M396.026 159.369L389.713 164.986L396.026 170.042L387.798 171.376V179.802L382.478 174.396L380.563 182.049L375.881 173.764L371.696 178.819L370.278 174.396L364.958 176.572V170.674L356.872 172.5L362.972 166.11L355.453 163.722L362.192 162.388L355.453 153.962L363.681 156.209L362.972 149.679L369.285 153.962L370.278 145.887L375.881 153.962L379.073 147.783L381.627 155.436L390.635 152.066L386.521 159.369H396.026Z" fill="#FF0000"/>
<path d="M64.387 328.716L58.2114 334.334L64.387 339.39L56.3379 340.724V349.15L51.1336 343.743L49.2601 351.397L44.6804 343.111L40.5865 348.167L39.1987 343.743L33.9945 345.92V340.022L26.0841 341.847L32.0516 335.457L24.6963 333.07L31.2883 331.736L24.6963 323.31L32.7455 325.557L32.0516 319.026L38.2272 323.31L39.1987 315.234L44.6804 323.31L47.803 317.13L50.301 324.784L59.1134 321.414L55.0888 328.716H64.387Z" fill="#FF0000"/>
<path d="M170.23 177.892L163.917 183.51L170.23 188.565L162.002 189.9V198.326L156.682 192.919L154.767 200.573L150.085 192.287L145.901 197.343L144.482 192.919L139.162 195.096V189.197L131.076 191.023L137.176 184.633L129.657 182.246L136.396 180.912L129.657 172.485L137.885 174.732L137.176 168.202L143.489 172.485L144.482 164.41L150.085 172.485L153.277 166.306L155.831 173.96L164.839 170.589L160.725 177.892H170.23Z" fill="#FF0000"/>
</svg>
