<svg width="552" height="635" viewBox="0 0 552 635" fill="none" xmlns="http://www.w3.org/2000/svg">
<path d="M355.409 154.43L183.737 150.159C178.05 150.515 166.463 151.868 165.61 154.43C164.544 157.633 163.478 203.547 161.345 217.428C159.213 231.309 154.948 341.289 154.948 359.441C154.948 377.593 151.749 394.677 154.948 401.084C158.146 407.49 288.233 414.965 304.227 416.032C320.222 417.1 479.098 435.252 502.556 434.184C526.015 433.117 517.484 441.659 521.75 432.049C526.015 422.439 526.015 271.884 526.015 251.597C526.015 235.367 528.147 199.276 529.214 183.26C529.214 180.768 528.574 175.572 526.015 174.718C522.816 173.65 427.916 156.234 355.409 154.43Z" fill="#0F43F1"/>
<path d="M271.172 442.726L270.848 445.708L270.936 445.718L271.025 445.722L271.172 442.726ZM133.622 427.777L132.97 430.706L133.132 430.742L133.298 430.76L133.622 427.777ZM19.5292 529.215L21.5238 531.456L21.5837 531.403L21.6406 531.346L19.5292 529.215ZM22.7282 575.129L23.6474 572.273L23.5269 572.235L23.4037 572.206L22.7282 575.129ZM61.1144 585.807L61.4871 582.83L61.1144 585.807ZM433.248 601.823L431.482 599.398L433.248 601.823ZM476.966 543.096L474.503 541.382L474.468 541.432L474.436 541.484L476.966 543.096ZM401.259 449.133L401.524 446.145L401.466 446.139L401.407 446.137L401.259 449.133ZM521.75 459.811L521.485 462.799L521.617 462.811H521.75V459.811ZM533.479 465.149L530.537 465.737L533.479 465.149ZM534.545 495.047L536.981 496.798L537.545 496.013V495.047H534.545ZM515.352 521.741L512.916 519.99L512.909 519.999L515.352 521.741ZM488.695 559.113L491.09 560.919L491.114 560.887L491.137 560.855L488.695 559.113ZM435.38 617.84L436.639 620.563L435.38 617.84ZM165.61 611.433L165.222 614.408L165.254 614.412L165.286 614.415L165.61 611.433ZM42.9876 595.417L43.3762 592.442L43.3314 592.436L43.2865 592.432L42.9876 595.417ZM25.927 589.01L24.0049 591.313L25.927 589.01ZM534.471 485.437L531.471 485.481L534.471 485.437ZM548.407 207.818L545.408 207.739L545.407 207.754L545.407 207.768L548.407 207.818ZM533.479 158.701L534.892 156.055L533.479 158.701ZM128.29 388.271L131.222 388.907L131.281 388.635L131.289 388.357L128.29 388.271ZM128.29 420.303L125.848 422.046L128.29 420.303ZM280.769 589.01L280.103 591.935L282.346 592.446L283.421 590.412L280.769 589.01ZM244.515 581.536L244.022 584.495L244.515 581.536ZM436.447 546.3L437.272 549.184L438.381 548.867L438.992 547.888L436.447 546.3ZM479.098 477.963L481.643 479.551L484.068 475.665L479.537 474.995L479.098 477.963ZM133.622 449.133L133.739 446.135L132.427 446.084L131.499 447.013L133.622 449.133ZM80.3076 502.521L81.9733 505.016L82.2204 504.851L82.4304 504.641L80.3076 502.521ZM77.1087 508.928L78.7744 506.433L77.1087 508.928ZM419.386 546.3L420.038 543.371L419.386 546.3ZM355.409 154.43L355.334 157.429L355.409 154.43ZM183.737 150.159L183.812 147.16L183.681 147.157L183.55 147.165L183.737 150.159ZM165.61 154.43L168.457 155.378L165.61 154.43ZM529.214 183.26L532.207 183.459L532.214 183.36V183.26H529.214ZM526.015 174.718L525.065 177.563L526.015 174.718ZM271.497 439.744L133.946 424.795L133.298 430.76L270.848 445.708L271.497 439.744ZM134.273 424.849C132.563 424.468 129.887 424.01 127.358 423.874C126.1 423.806 124.767 423.812 123.562 423.988C122.49 424.144 120.913 424.513 119.77 425.657L124.015 429.897C123.725 430.188 123.641 430.04 124.428 429.925C125.082 429.83 125.975 429.808 127.036 429.865C129.146 429.979 131.481 430.374 132.97 430.706L134.273 424.849ZM119.77 425.657C118.071 427.358 50.8352 493.976 17.4178 527.084L21.6406 531.346C55.0437 498.253 122.302 431.613 124.015 429.897L119.77 425.657ZM17.5346 526.974C14.1714 529.968 9.37561 535.1 5.82858 540.888C2.37959 546.516 -0.396693 553.597 1.75476 560.06L7.44765 558.165C6.18699 554.378 7.67584 549.357 10.9445 544.023C14.115 538.849 18.4893 534.157 21.5238 531.456L17.5346 526.974ZM1.75476 560.06C3.70512 565.919 7.54659 570.128 11.4364 572.983C15.3023 575.82 19.3574 577.429 22.0527 578.052L23.4037 572.206C21.4784 571.761 18.176 570.487 14.9867 568.146C11.8211 565.822 8.9094 562.557 7.44765 558.165L1.75476 560.06ZM21.809 577.985C26.8068 579.594 34.7275 582.059 42.2631 584.231C49.6954 586.374 57.0488 588.321 60.7418 588.784L61.4871 582.83C58.3559 582.438 51.4921 580.648 43.9253 578.466C36.4619 576.314 28.6016 573.868 23.6474 572.273L21.809 577.985ZM60.7418 588.784C64.9655 589.312 81.1713 591.706 97.5996 594.114C113.953 596.51 130.557 598.925 135.423 599.466L136.086 593.503C131.355 592.976 114.904 590.586 98.4696 588.177C82.1095 585.78 65.7937 583.369 61.4871 582.83L60.7418 588.784ZM135.423 599.466C140.302 600.009 157.765 601.085 174.865 602.28C183.458 602.88 191.998 603.513 198.916 604.127C205.96 604.753 211.014 605.338 212.865 605.801L214.322 599.981C211.907 599.376 206.298 598.76 199.447 598.151C192.47 597.531 183.883 596.895 175.283 596.295C157.995 595.087 140.803 594.028 136.086 593.503L135.423 599.466ZM212.865 605.801C214.16 606.125 217.436 606.58 221.926 607.117C226.525 607.666 232.643 608.328 239.818 609.046C254.17 610.483 272.787 612.154 292.003 613.624C311.216 615.093 331.051 616.364 347.831 617C364.503 617.632 378.458 617.653 385.722 616.534L384.808 610.604C378.211 611.62 364.842 611.641 348.059 611.005C331.385 610.373 311.634 609.108 292.461 607.641C273.291 606.175 254.721 604.508 240.416 603.076C233.263 602.359 227.185 601.703 222.638 601.159C217.981 600.603 215.159 600.19 214.322 599.981L212.865 605.801ZM385.722 616.534C392.612 615.472 398.309 614.742 403.195 614.108C408.058 613.476 412.179 612.932 415.811 612.245C423.214 610.847 428.717 608.834 435.014 604.248L431.482 599.398C426.049 603.355 421.423 605.079 414.697 606.35C411.266 606.998 407.323 607.521 402.422 608.158C397.545 608.791 391.78 609.53 384.808 610.604L385.722 616.534ZM435.014 604.248C437.705 602.288 441.159 598.53 444.858 594.019C448.62 589.43 452.834 583.814 457.064 577.919C465.528 566.127 474.143 553.106 479.495 544.709L474.436 541.484C469.126 549.814 460.573 562.74 452.19 574.421C447.996 580.263 443.866 585.765 440.218 590.214C436.506 594.741 433.482 597.941 431.482 599.398L435.014 604.248ZM479.428 544.81L528.477 474.338L523.552 470.91L474.503 541.382L479.428 544.81ZM271.025 445.722L401.112 452.129L401.407 446.137L271.32 439.73L271.025 445.722ZM400.995 452.121L521.485 462.799L522.014 456.822L401.524 446.145L400.995 452.121ZM521.75 462.811C523.306 462.811 525.683 463.053 527.671 463.722C529.865 464.46 530.449 465.297 530.537 465.737L536.421 464.562C535.655 460.731 532.152 458.899 529.583 458.035C526.808 457.102 523.747 456.811 521.75 456.811V462.811ZM512.909 519.999L486.252 557.371L491.137 560.855L517.794 523.483L512.909 519.999ZM486.299 557.306C479.753 565.988 469.241 579.332 458.999 591.127C453.876 597.028 448.852 602.505 444.444 606.807C439.936 611.207 436.37 614.077 434.122 615.116L436.639 620.563C439.935 619.04 444.162 615.467 448.635 611.101C453.209 606.636 458.354 601.022 463.53 595.061C473.885 583.135 484.485 569.678 491.09 560.919L486.299 557.306ZM434.122 615.116C420.207 621.547 406.957 629.761 377.908 628.723L377.694 634.719C408.358 635.815 422.83 626.945 436.639 620.563L434.122 615.116ZM377.908 628.723C363.137 628.194 343.284 625.811 324.854 623.538C306.592 621.285 289.538 619.111 280.769 619.111V625.111C289.061 625.111 305.595 627.207 324.12 629.493C342.477 631.757 362.609 634.179 377.694 634.719L377.908 628.723ZM280.769 619.111C274.128 619.111 253.699 617.353 230.623 615.121C207.642 612.898 182.277 610.229 165.935 608.451L165.286 614.415C181.644 616.196 207.034 618.867 230.045 621.093C252.961 623.309 273.762 625.111 280.769 625.111V619.111ZM165.999 608.458L43.3762 592.442L42.5991 598.391L165.222 614.408L165.999 608.458ZM43.2865 592.432C41.7167 592.274 38.939 591.783 35.9625 590.826C32.9599 589.86 29.9911 588.494 27.8491 586.707L24.0049 591.313C26.9813 593.797 30.7657 595.457 34.1252 596.537C37.5108 597.626 40.7043 598.203 42.6887 598.402L43.2865 592.432ZM27.8491 586.707C24.7726 584.139 20.1241 579.743 16.0085 574.591C11.8421 569.376 8.48497 563.71 7.55295 558.577L1.64946 559.649C2.84987 566.26 6.95677 572.874 11.3207 578.336C15.7355 583.862 20.6837 588.542 24.0049 591.313L27.8491 586.707ZM530.537 465.737C530.777 466.941 530.992 469.739 531.154 473.483C531.311 477.131 531.412 481.434 531.471 485.481L537.47 485.393C537.411 481.319 537.309 476.952 537.148 473.223C536.991 469.59 536.769 466.305 536.421 464.562L530.537 465.737ZM531.471 485.481C531.525 489.113 531.545 492.524 531.545 495.047H537.545C537.545 492.496 537.524 489.055 537.47 485.393L531.471 485.481ZM535.95 488.047C538.937 486.354 545.039 481.108 546.052 472.995L540.098 472.252C539.405 477.806 535.03 481.672 532.992 482.827L535.95 488.047ZM546.052 472.995C546.181 471.96 546.325 468.316 546.49 462.878C546.658 457.328 546.853 449.685 547.067 440.447C547.496 421.968 548.003 397.085 548.527 369.749C549.576 315.076 550.695 250.58 551.406 207.868L545.407 207.768C544.696 250.477 543.577 314.968 542.528 369.634C542.004 396.967 541.498 421.841 541.069 440.308C540.855 449.542 540.66 457.168 540.492 462.696C540.321 468.336 540.182 471.579 540.098 472.252L546.052 472.995ZM551.406 207.897C551.588 200.955 551.046 190.128 548.802 180.096C547.68 175.078 546.108 170.146 543.917 165.964C541.736 161.804 538.82 158.153 534.892 156.055L532.065 161.347C534.535 162.666 536.728 165.173 538.602 168.749C540.465 172.304 541.892 176.688 542.947 181.405C545.057 190.841 545.581 201.157 545.408 207.739L551.406 207.897ZM534.892 156.055C527.067 151.876 523.068 149.591 520.199 148.442C516.94 147.136 514.81 147.159 511.087 147.159V153.159C514.828 153.159 515.896 153.182 517.968 154.012C520.431 154.998 523.896 156.984 532.065 161.347L534.892 156.055ZM511.087 147.159C509.374 147.159 493.922 145.977 470.848 144.198C447.908 142.43 417.679 140.094 386.684 137.824C355.69 135.555 323.917 133.351 297.886 131.848C271.959 130.351 251.478 129.532 243.249 130.081L243.649 136.068C251.415 135.55 271.452 136.332 297.54 137.838C323.524 139.338 355.261 141.539 386.246 143.808C417.228 146.077 447.444 148.412 470.387 150.18C493.197 151.939 509.067 153.159 511.087 153.159V147.159ZM243.249 130.081C227.515 131.132 218.923 130.086 211.098 129.29C203.083 128.474 195.854 127.92 183.223 130.119L184.252 136.03C196.145 133.959 202.777 134.473 210.49 135.259C218.393 136.064 227.394 137.153 243.649 136.068L243.249 130.081ZM183.223 130.119C170.813 132.28 161.009 135.304 153.571 140.175C146.015 145.122 141.079 151.856 138.222 161.011L143.95 162.798C146.424 154.869 150.552 149.323 156.857 145.194C163.281 140.988 172.136 138.14 184.252 136.03L183.223 130.119ZM138.222 161.011C132.913 178.022 130.622 186.999 130.622 195.005H136.622C136.622 188.063 138.595 179.955 143.95 162.798L138.222 161.011ZM130.622 195.005C130.622 200.927 127.07 326.203 125.292 388.185L131.289 388.357C133.065 326.477 136.622 201.042 136.622 195.005H130.622ZM125.359 387.634C124.444 391.846 123.349 398.527 123.028 404.965C122.868 408.183 122.896 411.425 123.266 414.308C123.625 417.114 124.35 419.945 125.848 422.046L130.733 418.561C130.099 417.673 129.535 416.028 129.217 413.546C128.909 411.142 128.87 408.284 129.021 405.264C129.322 399.228 130.359 392.881 131.222 388.907L125.359 387.634ZM125.848 422.046L131.179 429.519L136.064 426.035L130.733 418.561L125.848 422.046ZM517.788 523.492L536.981 496.798L532.109 493.296L512.916 519.99L517.788 523.492ZM283.421 590.412C286.627 584.348 291.438 575.089 295.451 567.015C297.456 562.982 299.275 559.219 300.597 556.29C301.257 554.829 301.809 553.54 302.202 552.511C302.398 551.999 302.57 551.512 302.696 551.078C302.798 550.729 302.962 550.126 302.962 549.503H296.962C296.962 549.2 297.026 549.091 296.938 549.394C296.874 549.612 296.764 549.933 296.598 550.369C296.266 551.236 295.769 552.403 295.129 553.821C293.852 556.649 292.072 560.333 290.078 564.344C286.095 572.358 281.309 581.571 278.117 587.608L283.421 590.412ZM302.962 549.503C302.962 549.235 303.051 548.942 303.328 547.982C303.503 547.375 304.014 545.771 303.475 544.151C302.815 542.169 301.081 541.223 299.423 540.758C297.767 540.294 295.5 540.096 292.498 540.096V546.096C295.361 546.096 296.96 546.299 297.803 546.536C298.644 546.771 298.042 546.827 297.782 546.046C297.643 545.627 297.821 545.424 297.563 546.319C297.407 546.861 296.962 548.169 296.962 549.503H302.962ZM292.498 540.096C289.83 540.096 282.699 539.207 273.037 537.856C263.605 536.538 251.715 534.775 240.263 533.184C228.73 531.582 217.306 530.105 208.348 529.297C203.877 528.894 199.953 528.651 196.91 528.651C195.393 528.651 194.022 528.711 192.878 528.86C191.866 528.991 190.557 529.242 189.536 529.924L192.867 534.914C192.645 535.062 192.735 534.929 193.651 534.81C194.433 534.708 195.517 534.651 196.91 534.651C199.685 534.651 203.4 534.876 207.809 535.273C216.612 536.067 227.913 537.526 239.438 539.127C251.045 540.74 262.546 542.448 272.207 543.798C281.638 545.117 289.302 546.096 292.498 546.096V540.096ZM189.536 529.924C185.723 532.469 183.304 536.202 181.412 539.451C179.371 542.953 178.056 545.608 176.283 547.383L180.529 551.623C183.021 549.127 184.904 545.375 186.596 542.471C188.436 539.313 190.281 536.64 192.867 534.914L189.536 529.924ZM176.283 547.383C175.309 548.358 173.421 549.999 171 552.116C168.635 554.184 165.861 556.623 163.279 559.072C160.72 561.5 158.241 564.039 156.521 566.311C155.669 567.436 154.896 568.635 154.422 569.823C153.982 570.927 153.555 572.65 154.396 574.334L159.764 571.654C160.072 572.27 159.778 572.591 159.996 572.044C160.181 571.58 160.59 570.876 161.305 569.933C162.717 568.067 164.903 565.802 167.409 563.425C169.892 561.069 172.582 558.703 174.949 556.633C177.26 554.612 179.37 552.783 180.529 551.623L176.283 547.383ZM154.396 574.334C155.099 575.741 156.468 576.645 157.52 577.22C158.706 577.867 160.169 578.45 161.771 578.979C164.989 580.041 169.138 581.005 173.603 581.818C182.534 583.444 193.114 584.536 200.798 584.536V578.536C193.554 578.536 183.341 577.492 174.678 575.915C170.346 575.126 166.499 574.221 163.652 573.282C162.221 572.809 161.136 572.358 160.397 571.954C159.525 571.478 159.594 571.314 159.764 571.654L154.396 574.334ZM200.798 584.536C208.326 584.536 216.244 583.995 223.564 583.733C230.999 583.467 237.941 583.48 244.022 584.495L245.009 578.577C238.295 577.456 230.841 577.469 223.349 577.737C215.741 578.009 208.198 578.536 200.798 578.536V584.536ZM244.022 584.495C254.161 586.187 272.28 590.155 280.103 591.935L281.435 586.085C273.62 584.306 255.343 580.301 245.009 578.577L244.022 584.495ZM438.992 547.888L481.643 479.551L476.553 476.374L433.902 544.711L438.992 547.888ZM479.537 474.995C463.892 472.681 439.944 469.209 418.943 466.315C408.443 464.869 398.671 463.565 391.037 462.623C383.518 461.694 377.82 461.082 375.668 461.082V467.082C377.356 467.082 382.596 467.626 390.302 468.577C397.894 469.515 407.635 470.814 418.124 472.259C439.099 475.149 463.026 478.618 478.659 480.93L479.537 474.995ZM375.668 461.082C366.036 461.082 304.372 460.01 286.452 457.899L285.75 463.858C304.083 466.018 366.108 467.082 375.668 467.082V461.082ZM286.452 457.899C277.373 456.83 259.348 454.44 241.814 452.295C224.451 450.171 207.426 448.269 200.798 448.269V454.269C206.965 454.269 223.528 456.103 241.086 458.251C258.472 460.377 276.701 462.792 285.75 463.858L286.452 457.899ZM200.798 448.269C190.637 448.269 151.903 446.849 133.739 446.135L133.504 452.131C151.595 452.841 190.486 454.269 200.798 454.269V448.269ZM131.499 447.013L78.1848 500.401L82.4304 504.641L135.744 451.253L131.499 447.013ZM78.6419 500.026C77.4408 500.828 75.6559 502.245 74.4967 503.889C73.932 504.691 73.2636 505.895 73.2299 507.336C73.1898 509.049 74.0507 510.493 75.443 511.423L78.7744 506.433C78.7765 506.434 78.9177 506.531 79.0486 506.768C79.1862 507.016 79.2329 507.275 79.2282 507.477C79.2212 507.778 79.1125 507.755 79.4008 507.346C79.9477 506.57 81.0418 505.638 81.9733 505.016L78.6419 500.026ZM75.443 511.423C75.9404 511.755 76.4733 511.923 76.7559 512.007C77.1095 512.11 77.5004 512.198 77.8964 512.274C78.6927 512.428 79.6986 512.572 80.851 512.71C83.1658 512.986 86.2664 513.261 89.8753 513.538C97.0995 514.09 106.526 514.659 116.107 515.259C125.708 515.86 135.471 516.492 143.429 517.172C147.41 517.513 150.909 517.863 153.696 518.224C156.564 518.596 158.441 518.952 159.329 519.248L161.229 513.557C159.717 513.052 157.296 512.64 154.467 512.274C151.555 511.897 147.957 511.538 143.941 511.194C135.904 510.507 126.075 509.871 116.482 509.271C106.87 508.669 97.5035 508.103 90.3329 507.555C86.7443 507.28 83.7471 507.013 81.5635 506.752C80.4667 506.621 79.6232 506.497 79.0325 506.383C78.7351 506.326 78.5481 506.279 78.4472 506.25C78.2752 506.199 78.477 506.234 78.7744 506.433L75.443 511.423ZM159.329 519.248C160.205 519.54 161.696 519.819 163.454 520.098C165.304 520.392 167.708 520.723 170.575 521.086C176.313 521.814 183.988 522.68 192.965 523.64C210.922 525.56 234.161 527.863 257.681 530.199C281.209 532.535 305.021 534.903 324.15 536.953C343.39 539.016 357.632 540.732 362.221 541.754L363.525 535.897C358.518 534.783 343.836 533.029 324.79 530.987C305.633 528.934 281.795 526.564 258.274 524.228C234.744 521.892 211.532 519.591 193.603 517.674C184.636 516.715 177.008 515.854 171.329 515.134C168.488 514.774 166.155 514.452 164.395 514.172C162.544 513.878 161.553 513.665 161.229 513.557L159.329 519.248ZM362.221 541.754C372.013 543.932 383.906 545.281 394.426 546.348C405.125 547.433 414.164 548.211 418.735 549.228L420.038 543.371C415.011 542.253 405.391 541.429 395.031 540.379C384.492 539.31 372.927 537.989 363.525 535.897L362.221 541.754ZM418.735 549.228C426.946 551.055 434.351 550.02 437.272 549.184L435.622 543.415C433.567 544.003 427.181 544.961 420.038 543.371L418.735 549.228ZM355.484 151.431L183.812 147.16L183.663 153.158L355.334 157.429L355.484 151.431ZM183.55 147.165C180.63 147.348 176.18 147.786 172.303 148.519C170.38 148.883 168.474 149.343 166.936 149.928C166.172 150.219 165.381 150.584 164.696 151.057C164.059 151.497 163.169 152.265 162.764 153.483L168.457 155.378C168.265 155.955 167.923 156.12 168.106 155.994C168.24 155.901 168.539 155.738 169.07 155.536C170.122 155.135 171.628 154.754 173.419 154.415C176.971 153.742 181.157 153.326 183.925 153.153L183.55 147.165ZM162.764 153.483C162.594 153.993 162.499 154.631 162.435 155.127C162.36 155.705 162.289 156.419 162.219 157.233C162.08 158.865 161.941 161.009 161.799 163.502C161.515 168.49 161.214 174.986 160.881 181.778C160.211 195.474 159.417 210.226 158.38 216.973L164.31 217.884C165.406 210.75 166.212 195.604 166.874 182.072C167.208 175.251 167.507 168.8 167.789 163.844C167.93 161.365 168.066 159.288 168.198 157.742C168.264 156.967 168.326 156.352 168.385 155.899C168.455 155.364 168.493 155.268 168.457 155.378L162.764 153.483ZM158.38 216.973C157.281 224.125 155.677 255.327 154.349 286.706C153.017 318.186 151.948 350.288 151.948 359.441H157.948C157.948 350.442 159.01 318.478 160.344 286.96C161.682 255.341 163.277 224.613 164.31 217.884L158.38 216.973ZM151.948 359.441C151.948 368.409 151.16 377.019 150.752 384.504C150.551 388.194 150.443 391.632 150.602 394.588C150.758 397.479 151.18 400.255 152.263 402.424L157.632 399.744C157.115 398.709 156.738 396.948 156.594 394.266C156.453 391.65 156.545 388.481 156.743 384.83C157.136 377.633 157.948 368.624 157.948 359.441H151.948ZM152.263 402.424C152.757 403.412 153.596 403.979 154.081 404.267C154.65 404.605 155.304 404.883 155.961 405.119C157.285 405.595 159.01 406.037 161.006 406.457C165.024 407.303 170.528 408.137 176.999 408.949C189.963 410.576 207.078 412.148 224.549 413.551C259.496 416.355 296.067 418.494 304.028 419.026L304.427 413.039C296.394 412.503 259.924 410.371 225.029 407.57C207.58 406.169 190.573 404.605 177.746 402.995C171.323 402.189 166.014 401.38 162.242 400.586C160.345 400.187 158.931 399.811 157.99 399.472C157.515 399.302 157.254 399.174 157.143 399.107C156.947 398.991 157.338 399.156 157.632 399.744L152.263 402.424ZM304.028 419.026C311.957 419.555 355.544 424.346 400.29 428.894C422.619 431.163 445.197 433.368 463.666 434.938C482.03 436.5 496.587 437.459 502.693 437.181L502.42 431.188C496.797 431.443 482.697 430.535 464.174 428.96C445.756 427.393 423.217 425.193 400.896 422.925C356.341 418.396 312.492 413.578 304.427 413.039L304.028 419.026ZM502.693 437.181C514.083 436.663 517.158 438.503 517.805 438.891C517.868 438.929 517.925 438.964 517.993 439.007C518.051 439.043 518.143 439.1 518.235 439.153C518.272 439.175 518.881 439.568 519.679 439.65C520.207 439.705 520.857 439.636 521.494 439.291C522.09 438.969 522.447 438.529 522.64 438.235C522.96 437.749 523.099 437.233 523.128 437.132C523.319 436.483 523.525 435.444 524.492 433.266L519.007 430.832C517.841 433.459 517.514 434.956 517.372 435.441C517.318 435.624 517.386 435.304 517.626 434.94C517.779 434.707 518.093 434.309 518.641 434.013C519.232 433.694 519.829 433.634 520.297 433.682C520.974 433.752 521.431 434.072 521.263 433.973C521.126 433.894 521.232 433.951 520.895 433.748C518.877 432.536 514.488 430.638 502.42 431.188L502.693 437.181ZM524.492 433.266C524.95 432.234 525.241 430.687 525.47 429.087C525.717 427.364 525.941 425.175 526.148 422.609C526.561 417.47 526.913 410.672 527.213 402.766C527.814 386.945 528.215 366.561 528.481 345.866C529.015 304.469 529.015 261.741 529.015 251.597H523.015C523.015 261.74 523.015 304.433 522.482 345.788C522.215 366.469 521.816 386.793 521.217 402.538C520.918 410.415 520.57 417.114 520.167 422.128C519.965 424.638 519.752 426.688 519.531 428.236C519.42 429.011 519.311 429.628 519.207 430.097C519.156 430.331 519.109 430.511 519.07 430.644C519.029 430.783 519.005 430.837 519.007 430.832L524.492 433.266ZM529.015 251.597C529.015 235.485 531.139 199.499 532.207 183.459L526.22 183.061C525.155 199.053 523.015 235.248 523.015 251.597H529.015ZM532.214 183.26C532.214 181.825 532.036 179.617 531.463 177.568C531.177 176.542 530.754 175.42 530.11 174.428C529.466 173.438 528.464 172.372 526.965 171.872L525.065 177.563C524.845 177.49 524.882 177.395 525.078 177.697C525.273 177.997 525.491 178.49 525.684 179.182C526.071 180.567 526.214 182.204 526.214 183.26H532.214ZM526.965 171.872C526.562 171.738 525.805 171.57 524.985 171.398C524.072 171.206 522.834 170.96 521.303 170.667C518.239 170.081 513.968 169.303 508.715 168.395C498.208 166.579 483.75 164.241 467.124 161.88C433.894 157.161 391.909 152.337 355.484 151.431L355.334 157.429C391.416 158.327 433.135 163.113 466.281 167.82C482.843 170.172 497.241 172.501 507.693 174.307C512.92 175.21 517.155 175.982 520.176 176.56C521.688 176.849 522.887 177.088 523.751 177.27C524.708 177.471 525.067 177.564 525.065 177.563L526.965 171.872Z" fill="#0F43F1"/>
<path d="M259.435 245.544C272.002 247.422 278.226 236.951 286.895 229.334C279.586 239.734 271.53 246.464 259.435 247.705V248.786C279.451 257.666 286.553 231.866 303.568 227.172V228.253L273.165 251.451L259.435 250.947C261.106 260.274 272.845 262.53 280.028 259.359C288.578 255.584 292.478 244.114 300.625 239.08C307.555 234.799 315.051 237.323 322.201 234.568C328.98 231.957 333.359 225.354 337.893 219.608C335.646 225 329.774 229.386 328.549 234.949C327.578 239.354 329.254 245.554 330.181 249.867C333.672 266.095 342.593 279.456 357.508 284.448C348.615 270.731 334.066 257.74 336.913 239.06H337.893C337.894 244.209 337.703 249.285 339.368 254.189C344.901 270.497 359.685 279.811 365.928 295.255C369.889 305.052 367.933 318.26 363.858 327.675C361.772 332.493 358.83 336.795 355.485 340.632C350.004 346.919 343.237 351.67 336.913 356.854C351.739 365.902 369.568 356.546 372.219 338.482C381.841 338.784 392.151 343.42 401.63 342.571C407.476 342.047 409.55 336.572 408.506 330.917C404.983 332.525 400.724 335.436 396.767 334.541C393.453 333.791 391.683 330.655 390.107 327.663C386.909 321.593 383.292 315.291 382.356 308.223C381.431 301.235 383.576 294.392 385.091 287.69C387.159 278.544 389.224 269.03 389.756 259.593C390.68 243.192 382.38 226.915 373.8 214.204C357.408 189.921 329.143 189.542 304.548 196.517C296.223 198.878 287.006 201.749 280.143 207.679C268.728 217.542 262.723 230.44 259.435 245.544ZM268.261 261.754C268.261 267.837 267.219 274.338 271.204 279.045L269.243 273.641L271.204 275.803C271.204 275.803 277.613 273.773 283.047 276.567L283.953 279.045C277.464 276.444 275.291 276.667 269.243 280.126C269.202 287.73 267.883 295.19 268.374 302.82C269.332 317.707 277.264 334.588 288.857 342.773C293.883 346.321 299.751 346.374 305.529 345.922C318.797 344.885 332.175 339.122 342.794 330.377C348.374 325.783 353.584 320.425 354.566 312.546H366.334L365.354 297.417C362.813 300.476 363.875 304.722 361.609 307.491C359.034 310.637 356.184 307.018 359.469 303.9L357.508 308.223L362.412 307.143L359.469 299.578H358.489L363.392 293.094V290.932L362.412 289.852L357.508 292.012L359.469 287.69C347.023 280.476 335.817 272.653 330.538 257.431C328.051 250.265 327.4 242.243 326.124 234.737L300.625 240.6L282.945 259.133L268.261 261.754ZM346.72 241.221C348.087 268.906 375.548 285.306 372.219 314.707H371.238C371.238 297.031 364.26 284.822 355.546 270.399C350.76 262.475 343.351 251.23 346.72 241.221ZM357.508 252.028L372.323 280.126L380.064 303.9C376.551 300.376 375.978 293.56 374.16 288.771C371.001 280.453 366.004 273.502 361.475 266.077C358.899 261.852 356.134 257.192 357.508 252.028ZM259.435 257.431C259.435 271.897 262.46 286.784 259.452 301.125C256.961 313.003 248.589 326.319 248.966 338.482C249.226 346.88 254.863 354.311 261.396 357.934C259.67 353.018 257.738 348.149 257.544 342.804C256.826 322.931 267.359 304.393 267.276 284.448C267.235 274.607 268.536 261.848 259.435 257.431ZM326.123 270.399L316.313 263.751L301.605 267.157C309.383 259.402 320.903 260.045 326.123 270.399ZM279.049 270.399L270.222 266.077C274.303 263.46 277.027 266.298 279.049 270.399ZM325.143 273.641L321.22 282.287L328.085 277.964C322.802 286.705 320.151 281.423 313.364 280.728C311.866 280.574 306.863 282.433 305.363 282.649C303.537 282.911 305.226 281.61 303.567 282.287L321.22 273.641L319.258 279.045L325.143 273.641ZM292.779 280.126C290.838 284.256 286.46 288.515 285.59 293.027C283.951 301.541 296.033 298.37 299.644 297.417C296.015 302.868 286.067 302.871 283.207 296.108C280.817 290.454 288.496 281.979 292.779 280.126ZM266.299 304.981C261.706 320.861 256.713 338.199 261.396 354.692C263.85 353.105 265.462 351.622 265.471 348.191C265.488 342.74 263.434 337.565 263.843 331.998C264.517 322.807 269.666 313.986 266.299 304.981ZM281.01 309.304L280.029 312.546L296.702 314.427L317.297 313.626V314.707C310.411 319.801 301.558 326.715 292.779 323.644C286.854 321.573 283.678 315.959 277.087 315.788L281.01 309.304ZM284.933 313.626C291.048 326.624 303.533 323.509 312.394 315.788L298.663 315.712L284.933 313.626ZM346.72 347.127C357.842 340.431 363.791 327.925 366.334 314.707C359.083 315.12 358.933 320.298 356.128 326.595C353.039 333.532 349.175 339.831 346.72 347.127ZM356.527 314.707C346.381 332.875 327.834 345.143 308.471 347.127L319.34 379.547L328.086 389.274L345.739 361.176L330.047 357.934C333.679 356.182 337.637 354.901 340.712 352.036C346.119 346.999 348.802 338.668 352.181 331.998C354.789 326.845 358.33 320.7 356.527 314.707ZM268.261 316.869C266.147 324.304 262.283 339.461 267.55 346.348C269.954 349.493 275.764 347.204 279.05 347.927C288.887 350.094 297.694 359.699 306.51 349.289L289.838 345.023L268.261 316.869ZM305.529 328.755V329.837C298.142 333.113 291.604 332.354 284.934 327.675L294.741 330.46L305.529 328.755Z" fill="#FFE231"/>
<path d="M323.056 36.1308C297.274 34.6214 300.47 69.5552 320.286 69.5554C343.938 69.5557 341.381 36.1308 323.056 36.1308Z" fill="white"/>
<path d="M324.805 27.1461C287 24.8511 291.686 77.9654 320.743 77.9657C355.424 77.9661 351.675 27.1461 324.805 27.1461Z" fill="white"/>
<path d="M312.403 5.72515L373.982 9.60673L379.096 16.723L389.111 17.3538L430.448 19.9576C432.649 25.78 436.797 40.9182 435.775 54.8919C434.752 68.8655 429.95 84.8663 427.678 91.12L406.37 90.3921L402.428 90.2574L384.304 89.6382L377.178 89.3948L370.147 95.6485L323.909 91.5904L319.647 91.2164L291.521 88.7479L286.833 82.0629L278.95 81.2775L245.709 77.9657C243.508 71.9996 239.317 57.2208 240.169 45.8348C241.022 34.4489 245.212 16.3636 247.201 8.74416L281.08 9.98133L288.538 10.2537L293.865 4L312.403 5.72515Z" fill="white"/>
<path d="M335.841 113.962L333.284 122.82L301.11 121.31C299.476 122.748 296.379 126.184 297.061 128.426C297.743 130.669 300.044 133.817 301.11 135.111C300.754 141.221 301.237 154.692 306.01 159.695C311.977 165.948 315.386 167.026 338.824 168.32C362.263 169.614 369.294 173.064 375.687 168.32C376.008 168.034 376.344 167.733 376.694 167.421C381.337 162.578 385.015 149.167 386.341 142.659L395.929 129.504L398.912 129.145V119.011L335.841 113.962Z" fill="white"/>
<path d="M395.929 129.504L386.341 142.659C385.015 149.167 381.337 162.578 376.694 167.421C384.149 160.753 397.61 148.518 398.912 146.54C400.276 144.47 400.759 142.084 400.83 141.149L404.878 128.426L398.912 129.145L395.929 129.504Z" fill="white"/>
<path d="M314.533 27.5052L324.548 24.2706C335.557 23.2643 357.447 26.8152 356.936 49.0696C356.425 71.324 340.529 76.8875 332.645 76.8875L320.926 78.1813M373.982 9.60673L312.403 5.72515L293.865 4L288.538 10.2537L281.08 9.98133M373.982 9.60673L379.096 16.723L389.111 17.3538M373.982 9.60673L384.636 11.3319L389.111 17.3538M281.08 9.98133L247.201 8.74416C245.212 16.3636 241.022 34.4489 240.169 45.8348C239.317 57.2208 243.508 71.9996 245.709 77.9657L278.95 81.2775M281.08 9.98133C277.103 16.9727 269.489 34.8801 270.853 50.579C272.216 66.2778 276.819 77.5858 278.95 81.2775M278.95 81.2775L286.833 82.0629L291.521 88.7479L319.647 91.2164M386.128 16.723C390.247 22.3297 397.293 42.1689 395.929 55.9701C394.577 69.653 387.947 82.3467 384.304 89.6382M384.21 89.8261C384.241 89.7639 384.272 89.7013 384.304 89.6382M402.428 90.2574L403.387 119.369M402.428 90.2574L406.37 90.392M402.428 90.2574L384.304 89.6382M403.387 119.369H407.861L406.37 90.392M403.387 119.369L404.878 128.426M403.387 119.369L398.912 119.011M406.37 90.392L427.678 91.12C429.95 84.8663 434.752 68.8656 435.774 54.8919C436.797 40.9182 432.649 25.78 430.448 19.9576L389.111 17.3538M319.647 91.2164L327.957 113.331L330.94 113.57M319.647 91.2164L323.909 91.5904M323.909 91.5904L370.147 95.6485L377.178 89.3948L384.304 89.6382M323.909 91.5904L330.94 113.57M330.94 113.57L335.841 113.962M335.841 113.962L333.284 122.82L301.11 121.31C299.476 122.748 296.379 126.184 297.061 128.426C297.743 130.669 300.044 133.817 301.11 135.111C300.754 141.221 301.237 154.692 306.01 159.695C311.977 165.948 315.386 167.026 338.824 168.32C362.263 169.614 369.294 173.064 375.687 168.32M335.841 113.962L398.912 119.011M375.687 168.32C376.008 168.034 376.344 167.733 376.694 167.421M375.687 168.32C376.027 168.068 376.363 167.766 376.694 167.421M404.878 128.426L398.912 129.145M404.878 128.426L400.83 141.149C400.759 142.084 400.276 144.47 398.912 146.54C397.61 148.518 384.149 160.753 376.694 167.421M398.912 119.011V129.145M398.912 129.145L395.929 129.504L386.341 142.659C385.015 149.167 381.337 162.578 376.694 167.421M323.056 36.1308C297.274 34.6214 300.47 69.5552 320.286 69.5554C343.938 69.5557 341.381 36.1308 323.056 36.1308ZM324.805 27.1461C287 24.8511 291.686 77.9654 320.743 77.9657C355.424 77.9661 351.675 27.1461 324.805 27.1461ZM321.778 44.1097C312.403 43.894 311.763 60.4986 321.778 60.4986C331.367 60.4986 332.858 44.1097 321.778 44.1097Z" stroke="#0F43F1" stroke-width="6"/>
<path d="M443.971 216.046L443.681 220.342L442.228 217.273C441.066 215.944 438.626 213.1 438.162 212.364C437.581 211.443 435.548 211.597 435.257 212.057C435.234 212.094 434.967 212.057 435.257 213.284L438.162 226.479C438.452 228.32 439.255 230.468 438.743 232.309C437.29 237.525 434.095 238.446 432.643 238.753C431.191 239.06 428.577 239.673 427.415 237.219C426.253 234.764 427.124 232.002 429.158 230.161C430.88 228.601 434.095 227.706 434.967 227.706H436.419L432.062 206.227C432.062 206.022 431.772 205.306 432.353 205C432.817 204.754 433.224 205 433.515 205.306C434.967 206.636 438.336 209.664 440.195 211.137C442.054 212.609 443.487 215.023 443.971 216.046Z" fill="#FF0000" stroke="#FD2D46" stroke-width="6"/>
<path d="M225.994 216.046L225.72 220.342L224.354 217.273C223.26 215.944 220.964 213.1 220.526 212.364C219.98 211.443 218.066 211.597 217.793 212.057C217.771 212.094 217.519 212.057 217.793 213.284L220.526 226.479C220.8 228.32 221.556 230.468 221.073 232.309C219.706 237.525 216.699 238.446 215.332 238.753C213.965 239.06 211.505 239.673 210.412 237.219C209.318 234.764 210.138 232.002 212.052 230.161C213.673 228.601 216.699 227.706 217.519 227.706H218.886L214.786 206.227C214.786 206.022 214.512 205.306 215.059 205C215.496 204.754 215.879 205 216.152 205.306C217.519 206.636 220.69 209.664 222.44 211.137C224.19 212.609 225.538 215.023 225.994 216.046Z" fill="#FF0000" stroke="#FD2D46" stroke-width="6"/>
<path d="M200.881 330.887L200.591 335.309L199.138 332.15C197.976 330.781 195.537 327.854 195.072 327.096C194.491 326.149 192.458 326.307 192.167 326.78C192.144 326.818 191.877 326.78 192.167 328.044L195.072 341.626C195.362 343.522 196.165 345.733 195.653 347.628C194.2 352.998 191.005 353.945 189.553 354.261C188.101 354.577 185.487 355.209 184.325 352.682C183.163 350.155 184.034 347.312 186.068 345.417C187.79 343.811 191.006 342.89 191.877 342.89H193.329L188.972 320.779C188.972 320.568 188.682 319.831 189.263 319.515C189.728 319.263 190.134 319.515 190.425 319.831C191.877 321.2 195.246 324.316 197.105 325.833C198.964 327.349 200.397 329.834 200.881 330.887Z" fill="#FF0000" stroke="#FD2D46" stroke-width="6"/>
<path d="M485.154 341.609L484.847 345.904L483.309 342.836C482.079 341.506 479.495 338.663 479.003 337.926C478.388 337.006 476.235 337.159 475.928 337.62C475.903 337.656 475.62 337.62 475.928 338.847L479.003 352.041C479.311 353.882 480.161 356.03 479.618 357.871C478.08 363.088 474.698 364.008 473.16 364.315C471.622 364.622 468.854 365.236 467.624 362.781C466.394 360.326 467.317 357.565 469.47 355.724C471.293 354.164 474.698 353.269 475.62 353.269H477.158L472.545 331.789C472.545 331.585 472.237 330.869 472.853 330.562C473.345 330.317 473.775 330.562 474.083 330.869C475.62 332.199 479.188 335.226 481.156 336.699C483.124 338.172 484.642 340.586 485.154 341.609Z" fill="#FF0000" stroke="#FD2D46" stroke-width="6"/>
<path d="M191.888 242.065C191.176 269.045 198.292 323.005 232.447 323.005C275.14 323.005 268.736 260.17 313.564 260.17C358.393 260.17 395.749 349.63 434.174 347.5C464.913 345.796 478.29 282.89 481.136 251.65" stroke="#FF0000" stroke-width="6"/>
<circle cx="397.765" cy="326.444" r="13.0585" fill="#FF0000"/>
</svg>
