<svg width="721" height="305" viewBox="0 0 721 305" fill="none" xmlns="http://www.w3.org/2000/svg">
<path d="M7.326 8.59477C9.27821 5.06532 26.8481 6.1607 35.6941 6.16066C43.4951 6.16063 59.3646 5.43047 61.9269 8.59477C65.1298 12.5501 64.2147 57.429 61.9269 60.1674C59.6392 62.9057 9.30871 62.2972 4.88574 60.1674C0.462759 58.0375 4.88574 13.0066 7.326 8.59477Z" fill="#FFE231" stroke="black" stroke-width="5"/>
<path d="M79.3969 8.6411C81.3811 5.04863 99.2391 6.16357 108.23 6.16353C116.159 6.1635 132.289 5.4203 134.893 8.6411C138.148 12.6671 137.218 58.3474 134.893 61.1346C132.568 63.9219 81.4121 63.3025 76.9167 61.1346C72.4212 58.9668 76.9167 13.1317 79.3969 8.6411Z" fill="#FFE231" stroke="black" stroke-width="5"/>
<path d="M155.397 7.6411C157.381 4.04863 175.239 5.16357 184.23 5.16353C192.159 5.1635 208.289 4.4203 210.893 7.6411C214.148 11.6671 213.218 57.3474 210.893 60.1346C208.568 62.9219 157.412 62.3025 152.917 60.1346C148.421 57.9668 152.917 12.1317 155.397 7.6411Z" fill="#FFE231" stroke="black" stroke-width="5"/>
<path d="M228.326 5.6411C230.278 2.04863 247.848 3.16357 256.694 3.16353C264.495 3.1635 280.365 2.4203 282.927 5.6411C286.13 9.6671 285.215 55.3474 282.927 58.1346C280.639 60.9219 230.309 60.3025 225.886 58.1346C221.463 55.9668 225.886 10.1317 228.326 5.6411Z" fill="#FFE231" stroke="black" stroke-width="5"/>
<path d="M300.326 5.6411C302.278 2.04863 319.848 3.16357 328.694 3.16353C336.495 3.1635 352.365 2.4203 354.927 5.6411C358.13 9.6671 357.215 55.3474 354.927 58.1346C352.639 60.9219 302.309 60.3025 297.886 58.1346C293.463 55.9668 297.886 10.1317 300.326 5.6411Z" fill="#FFE231" stroke="black" stroke-width="5"/>
<path d="M372.397 5.6411C374.381 2.04863 392.239 3.16357 401.23 3.16353C409.159 3.1635 425.289 2.4203 427.893 5.6411C431.148 9.6671 430.218 55.3474 427.893 58.1346C425.568 60.9219 374.412 60.3025 369.917 58.1346C365.421 55.9668 369.917 10.1317 372.397 5.6411Z" fill="#FFE231" stroke="black" stroke-width="5"/>
<path d="M445.326 5.6411C447.278 2.04863 464.848 3.16357 473.694 3.16353C481.495 3.1635 497.365 2.4203 499.927 5.6411C503.13 9.6671 502.215 55.3474 499.927 58.1346C497.639 60.9219 447.309 60.3025 442.886 58.1346C438.463 55.9668 442.886 10.1317 445.326 5.6411Z" fill="#FFE231" stroke="black" stroke-width="5"/>
<path d="M514.326 5.6411C516.278 2.04863 533.848 3.16357 542.694 3.16353C550.495 3.1635 566.365 2.4203 568.927 5.6411C572.13 9.6671 571.215 55.3474 568.927 58.1346C566.639 60.9219 516.309 60.3025 511.886 58.1346C507.463 55.9668 511.886 10.1317 514.326 5.6411Z" fill="#FFE231" stroke="black" stroke-width="5"/>
<path d="M588.397 5.6411C590.381 2.04863 608.239 3.16357 617.23 3.16353C625.159 3.1635 641.289 2.4203 643.893 5.6411C647.148 9.6671 646.218 55.3474 643.893 58.1346C641.568 60.9219 590.412 60.3025 585.917 58.1346C581.421 55.9668 585.917 10.1317 588.397 5.6411Z" fill="#FFE231" stroke="black" stroke-width="5"/>
<path d="M660.397 5.6411C662.381 2.04863 680.239 3.16357 689.23 3.16353C697.159 3.1635 713.289 2.4203 715.893 5.6411C719.148 9.6671 718.218 55.3474 715.893 58.1346C713.568 60.9219 662.412 60.3025 657.917 58.1346C653.421 55.9668 657.917 10.1317 660.397 5.6411Z" fill="#FFE231" stroke="black" stroke-width="5"/>
<path d="M32 39.5L42 49.5M33.0737 24C21.7402 24 20.515 26.7153 21.1276 34.5417C21.7402 42.3681 24.1907 47 28.6322 47C33.0737 47 39.3531 45.0833 39.9657 34.5417C40.4558 26.1083 35.5752 24 33.0737 24Z" stroke="black" stroke-width="5"/>
<path d="M93 27L101.742 44L105.874 32.5093L114.616 44L117 27" stroke="black" stroke-width="5"/>
<path d="M189 26H174V36M189 46H174V36M174 36H184.35" stroke="black" stroke-width="5"/>
<path d="M244 46V36M244 36V26C249 26.6566 259 28.9091 259 32.6667C259 36.4242 249 36.4545 244 36ZM244 36L259 46" stroke="black" stroke-width="5"/>
<path d="M315 25.6788H326.644M338.288 25.6788H326.644M326.644 25.6788V49M398.807 47.4242V32.9273M398.807 32.9273L389.155 23M398.807 32.9273L408 23" stroke="black" stroke-width="5"/>
<path d="M463.565 23C462.465 30.6667 462.223 46 470.054 46C477.886 46 479.257 31.9099 478.964 24.8649" stroke="black" stroke-width="5"/>
<path d="M537.57 21.7803L537.878 44.2551" stroke="black" stroke-width="5"/>
<path d="M604.005 33.01C603.755 26.4843 612.565 24.9517 617.001 25.0011C622.168 25.0011 623.264 30.637 622.951 35.383C622.638 40.1289 619.976 44.2816 614.183 43.985C608.389 43.6884 604.318 41.1671 604.005 33.01Z" stroke="black" stroke-width="5"/>
<path d="M681 47V34.0189M681 34.0189V21.0379C686.333 20.7803 697 21.7179 697 27.5284C697 33.339 686.333 34.2765 681 34.0189Z" stroke="black" stroke-width="5"/>
<path d="M591.074 299C573.045 276.649 513.709 240.456 480.484 242C438.953 243.93 432.192 243.525 400.319 229.053C368.446 214.582 329.812 206.381 329.812 198.663C329.812 190.945 331.261 176.956 355.89 180.815C380.519 184.674 400.802 208.311 411.426 190.945C413.755 187.139 411.537 180.044 406.568 171.167C406.9 173.096 407.273 178.306 406.114 183.709C404.665 190.462 392.592 188.533 388.246 188.05C384.769 187.665 383.007 175.348 382.561 169.237V137.4C360.76 110.376 334.243 82.6072 329.812 76.6191C321.603 65.5242 320.635 49.6869 327.881 45.2633C330.192 43.8518 336.433 48.2422 344.45 55.3934C366.572 75.128 402.215 115.887 406.114 113.763C411.426 110.869 430.26 97.3617 437.504 98.3264C444.748 99.2912 444.265 101.221 450.06 101.221C455.855 101.221 456.338 97.8441 461.65 97.3617C466.963 96.8793 475.655 101.221 480.484 101.221C485.314 101.221 485.314 98.3264 491.109 98.3264C496.904 98.3264 523.413 127.494 536.021 148.977C544.23 162.966 566.377 171.434 572.723 175.508C579.484 179.85 604.893 202.333 634.054 224.712C647.929 235.36 667.309 245.345 678 253.173L591.074 299Z" fill="white"/>
<path d="M382.561 137.4C360.76 110.376 334.243 82.6072 329.812 76.6191C321.603 65.5242 320.635 49.6869 327.881 45.2633C330.192 43.8518 336.433 48.2422 344.45 55.3934C366.572 75.128 402.215 115.887 406.114 113.763C411.426 110.869 430.26 97.3617 437.504 98.3264C444.748 99.2912 444.265 101.221 450.06 101.221C455.855 101.221 456.338 97.8441 461.65 97.3617C466.963 96.8793 475.655 101.221 480.484 101.221C485.314 101.221 485.314 98.3264 491.109 98.3264C496.904 98.3264 523.413 127.494 536.021 148.977C544.23 162.966 566.377 171.434 572.723 175.508C579.484 179.85 604.893 202.333 634.054 224.712C647.929 235.36 667.309 245.345 678 253.173L591.074 299C573.045 276.649 513.709 240.456 480.484 242C438.953 243.93 432.192 243.525 400.319 229.053C368.446 214.582 329.812 206.381 329.812 198.663C329.812 190.945 331.261 176.956 355.89 180.815C380.519 184.674 400.802 208.311 411.426 190.945C413.755 187.139 411.537 180.044 406.568 171.167M382.561 137.4V169.237C383.007 175.348 384.769 187.665 388.246 188.05C392.592 188.533 404.665 190.462 406.114 183.709C407.273 178.306 406.9 173.096 406.568 171.167M382.561 137.4C392.302 149.474 401.101 161.399 406.568 171.167" stroke="#FD2D46" stroke-width="8"/>
<path d="M51 83L73.1777 70V83V97L51 83Z" fill="#0F43F1"/>
<path d="M315 83L248 79.5L172.5 88.5L122.5 83H51M51 83L73.1777 70V97L51 83Z" stroke="#0F43F1" stroke-width="5"/>
<path d="M646 83L624.83 70V83V97L646 83Z" fill="#0F43F1"/>
<path d="M394 83L462.5 80L521 87.5L577 83H646M646 83L624.83 70V97L646 83Z" stroke="#0F43F1" stroke-width="5"/>
</svg>
