<svg width="1015" height="267" viewBox="0 0 1015 267" fill="none" xmlns="http://www.w3.org/2000/svg">
<path d="M144.536 2C144.536 2 166.645 135.876 156.948 183.753C152.22 207.1 133.188 256.099 84.2474 258.227C35.3072 260.355 13.0241 191.141 8 156.268" stroke="#0F43F1" stroke-width="16"/>
<path d="M197.731 136.763C195.958 60.5156 211.917 41.0104 247.381 38.3506C263.34 51.6496 275.752 64.9485 281.072 131.443C286.391 197.938 257.133 222.763 238.515 221.876C219.896 220.99 199.505 213.01 197.731 136.763Z" stroke="#0F43F1" stroke-width="16"/>
<path d="M306.783 29.4844L364.412 136.763M364.412 136.763L358.206 250.247M364.412 136.763L433.567 29.4844" stroke="#0F43F1" stroke-width="16"/>
<path d="M490.31 30.3711V257.34L605.567 242.268" stroke="#0F43F1" stroke-width="16"/>
<path d="M629.505 244.041L679.154 41.8965L728.804 222.762" stroke="#0F43F1" stroke-width="16"/>
<path d="M749.196 226.31L760.013 118.145M760.013 118.145L767.815 40.124C799.732 42.7838 852.042 64.0622 852.042 86.2271C852.042 115.485 822.784 128.784 760.013 118.145ZM760.013 118.145C791.576 121.691 853.992 139.778 851.155 183.753C847.609 238.722 769.588 242.268 755.402 231.629" stroke="#0F43F1" stroke-width="16"/>
<path d="M867.113 56.082H998.33L877.752 220.989H966.412" stroke="#0F43F1" stroke-width="16"/>
<path d="M98.4329 2C101.093 17.0722 106.59 51.4722 107.299 68.4948C108.186 89.7732 122.371 183.753 85.134 197.052C55.3443 207.691 44.9415 174.887 43.4639 157.155" stroke="#FFE231" stroke-width="16"/>
<path d="M226.104 130.557C226.104 113.712 226.104 83.5673 234.083 85.3405C237.038 85.3405 241.708 92.256 243.835 119.918C246.495 154.495 245.609 177.547 238.516 174.887C231.423 172.227 226.104 147.402 226.104 130.557Z" stroke="#FFE231" stroke-width="16"/>
<path d="M433.567 80.9072L404.309 144.742L388.351 249.361" stroke="#FFE231" stroke-width="16"/>
<path d="M346.681 25.0518L374.165 83.5672" stroke="#FFE231" stroke-width="16"/>
<path d="M521.34 30.3711V207.691L583.402 190.845" stroke="#FFE231" stroke-width="16"/>
<path d="M665.855 236.062L679.154 181.093L692.453 228.082" stroke="#FFE231" stroke-width="16"/>
<path d="M787.319 196.165L789.093 165.134C796.481 168.68 809.484 177.546 809.484 184.639C809.484 191.732 794.708 195.278 787.319 196.165Z" stroke="#FFE231" stroke-width="16"/>
<path d="M794.139 88.3547L794.139 80.7461C800.41 82.3526 812.861 86.1234 812.494 88.3547C812.126 90.5861 800.441 89.7753 794.139 88.3547Z" stroke="#FFE231" stroke-width="16"/>
<path d="M865.34 252.021L930.948 258.227" stroke="#FFE231" stroke-width="16"/>
<path d="M877.752 88.8862L925.628 85.3398L877.752 149.175" stroke="#FFE231" stroke-width="16"/>
<path d="M126.804 2C130.942 46.921 137.976 142.082 133.011 163.361C126.804 189.959 120.598 218.33 86.021 228.082C58.3591 235.885 33.7117 184.639 24.8457 158.041" stroke="#FD2D46" stroke-width="16"/>
<path d="M211.918 127.908C211.031 110.176 215.611 57.8667 235.116 58.7533C254.621 58.7533 259.794 112.825 259.794 125.237C259.794 137.649 265.114 200.609 240.435 200.609C213.691 200.609 212.804 145.64 211.918 127.908Z" stroke="#FD2D46" stroke-width="16"/>
<path d="M427.361 64.9482L381.258 141.196L375.052 260" stroke="#FD2D46" stroke-width="16"/>
<path d="M326.289 25.9385L363.526 104.846" stroke="#FD2D46" stroke-width="16"/>
<path d="M506.269 29.4844V228.082L592.269 214.783" stroke="#FD2D46" stroke-width="16"/>
<path d="M649.897 236.948L679.155 114.598L709.3 222.763" stroke="#FD2D46" stroke-width="16"/>
<path d="M768.701 213.01L775.794 139.423C794.117 148.584 830.586 171.163 829.876 188.186C829.167 205.208 788.797 211.828 768.701 213.01Z" stroke="#FD2D46" stroke-width="16"/>
<path d="M775.794 104.845L781.114 58.7422C798.845 64.0618 835.728 77.3607 834.309 91.5463C832.891 105.732 795.89 106.323 775.794 104.845Z" stroke="#FD2D46" stroke-width="16"/>
<path d="M866.228 237.835L961.98 244.928" stroke="#FD2D46" stroke-width="16"/>
<path d="M873.32 72.041H962.867L873.32 184.639" stroke="#FD2D46" stroke-width="16"/>
</svg>
