<svg width="406" height="130" viewBox="0 0 406 130" fill="none" xmlns="http://www.w3.org/2000/svg">
<path d="M397.605 0L10.6842 5.35294L0 130H406L397.605 0Z" fill="#FFE231"/>
<path d="M114.193 101L110.628 62.2772M110.628 62.2772L108 33.7272C122.667 28.6955 152 22.3729 152 37.337C152 52.3011 124.419 60.1988 110.628 62.2772Z" stroke="#0F43F1" stroke-width="10"/>
<path d="M172.168 29L164 97H197" stroke="#0F43F1" stroke-width="10"/>
<path d="M209 99L212.823 75.5357M246 99L233.446 62.5M233.446 62.5L220.893 26L212.823 75.5357M233.446 62.5L212.823 75.5357" stroke="#0F43F1" stroke-width="10"/>
<path d="M275.156 104V76.5M275.156 76.5L256 29M275.156 76.5L297 29" stroke="#0F43F1" stroke-width="10"/>
</svg>
