<svg width="636" height="364" viewBox="0 0 636 364" fill="none" xmlns="http://www.w3.org/2000/svg">
<path d="M74.554 327C74.554 314.5 69.5538 294 39.5538 294C19.0538 294 6.05387 310 7.05387 327C8.05387 344 21.0538 359.5 41.5538 360.5C62.0538 361.5 74.554 339.5 74.554 327Z" fill="#0F43F1"/>
<path d="M278.049 1H30.5488C13.5488 1 -0.951167 22.5 0.0488326 45.5C0.848833 63.9 20.7155 75.1667 30.5488 81H275.049C299.549 81 315.049 69.5 316.549 42C317.749 20 294.049 6.66667 278.049 1Z" fill="#FFE231"/>
<path d="M69.5004 22C52.5004 22 41.0004 33 42.5004 43C44.0004 53 50.0005 69 62.5005 66.5C75.0005 64 82.5005 56 82.0005 49.5C81.6005 44.3 68.8338 43 62.5005 43" stroke="black" stroke-width="5"/>
<path d="M97 22V63.5H122" stroke="black" stroke-width="5"/>
<path d="M134.5 20.5L136.5 65" stroke="black" stroke-width="5"/>
<path d="M153.5 20.5H167.5M181.5 20.5H167.5M167.5 20.5L164 65" stroke="black" stroke-width="5"/>
<path d="M213.008 22.0055C205.508 21.8388 190.608 25.4055 191.008 41.0055C191.408 56.6055 205.841 60.1721 213.008 60.0054" stroke="black" stroke-width="5"/>
<path d="M233 18V40M233 62V40M233 40H259V18V62" stroke="black" stroke-width="5"/>
<path d="M284.5 3H37C20 3 5.5 24.5 6.5 47.5C7.3 65.9 27.1667 77.1667 37 83H281.5C306 83 321.5 71.5 323 44C324.2 22 300.5 8.66667 284.5 3Z" stroke="black" stroke-width="5"/>
<path d="M74.554 327C74.554 314.5 69.5538 294 39.5538 294C19.0538 294 6.05387 310 7.05387 327C8.05387 344 21.0538 359.5 41.5538 360.5C62.0538 361.5 74.554 339.5 74.554 327Z" stroke="black" stroke-width="5"/>
<path d="M299.485 194H32.904C14.5934 194 -1.0245 215.5 0.0525973 238.5C0.914272 256.9 22.3125 268.167 32.904 274H296.253C322.642 274 339.337 262.5 340.953 235C342.245 213 316.718 199.667 299.485 194Z" fill="#FFE231"/>
<path d="M306.485 198H39.904C21.5934 198 5.9755 219.5 7.0526 242.5C7.91427 260.9 29.3125 272.167 39.904 278H303.253C329.642 278 346.337 266.5 347.953 239C349.245 217 323.718 203.667 306.485 198Z" stroke="black" stroke-width="5"/>
<path d="M41 217.663L61.2267 253.386L65.1733 234.218L78 256V212" stroke="black" stroke-width="5"/>
<path d="M112 218H94.5V238M116.5 258H94.5V238M94.5 238H112" stroke="black" stroke-width="5"/>
<path d="M279.5 256H262V236M284 216H262V236M262 236H279.5" stroke="black" stroke-width="5"/>
<path d="M131 239.25V218C137.833 218 151.7 220 152.5 228C153.3 236 138.5 238.833 131 239.25ZM131 239.25V260.5C139 261.333 155 261 155 253C155 245 139 240.5 131 239.25Z" stroke="black" stroke-width="5"/>
<path d="M188.5 217.5C179.667 217.5 162.2 219.5 163 227.5C164 237.5 191.5 231.5 191.5 242C191.5 250.4 172.5 253.833 163 254.5" stroke="black" stroke-width="5"/>
<path d="M207 217L204 255" stroke="black" stroke-width="5"/>
<path d="M219.5 217H233M246.5 217H233M233 217V256.5" stroke="black" stroke-width="5"/>
<path d="M249.424 98H27.4039C12.154 98 -0.853246 119.5 0.0438053 142.5C0.761447 160.9 18.5829 172.167 27.4039 178H246.733C268.711 178 282.615 166.5 283.961 139C285.037 117 263.777 103.667 249.424 98Z" fill="#FFE231"/>
<path d="M256.424 102H34.4039C19.154 102 6.14675 123.5 7.04381 146.5C7.76145 164.9 25.5829 176.167 34.4039 182H253.733C275.711 182 289.615 170.5 290.961 143C292.037 121 270.777 107.667 256.424 102Z" stroke="black" stroke-width="5"/>
<path d="M46.5 122L61.5 131" stroke="black" stroke-width="5"/>
<path d="M240 124L225 133" stroke="black" stroke-width="5"/>
<path d="M37.5 137.5H60" stroke="black" stroke-width="5"/>
<path d="M249 141H227" stroke="black" stroke-width="5"/>
<path d="M49 152L62 146" stroke="black" stroke-width="5"/>
<path d="M238 157L225 150" stroke="black" stroke-width="5"/>
<path d="M119 119V138M119 157V138M119 138H142V119V157" stroke="black" stroke-width="5"/>
<path d="M199.371 125C191.63 125 176.322 126.73 177.023 133.649C177.9 142.297 202 137.108 202 146.189C202 153.454 185.349 156.423 177.023 157" stroke="black" stroke-width="5"/>
<path d="M164 121L161 155" stroke="black" stroke-width="5"/>
<path d="M83 122H94.5M106 122H94.5M94.5 122V157" stroke="black" stroke-width="5"/>
<path d="M541.074 298C523.045 275.649 463.709 239.456 430.484 241C388.953 242.93 382.192 242.525 350.319 228.053C318.446 213.582 279.812 205.381 279.812 197.663C279.812 189.945 281.261 175.956 305.89 179.815C330.519 183.674 350.802 207.311 361.426 189.945C363.755 186.139 361.537 179.044 356.568 170.167C356.9 172.096 357.273 177.306 356.114 182.709C354.665 189.462 342.592 187.533 338.246 187.05C334.769 186.665 333.007 174.348 332.561 168.237V136.4C310.76 109.376 284.243 81.6072 279.812 75.6191C271.603 64.5242 270.635 48.6869 277.881 44.2633C280.192 42.8518 286.433 47.2422 294.45 54.3934C316.572 74.128 352.215 114.887 356.114 112.763C361.426 109.869 380.26 96.3617 387.504 97.3264C394.748 98.2912 394.265 100.221 400.06 100.221C405.855 100.221 406.338 96.8441 411.65 96.3617C416.963 95.8793 425.655 100.221 430.484 100.221C435.314 100.221 435.314 97.3264 441.109 97.3264C446.904 97.3264 473.413 126.494 486.021 147.977C494.23 161.966 516.377 170.434 522.723 174.508C529.484 178.85 554.893 201.333 584.054 223.712C597.929 234.36 617.309 244.345 628 252.173L541.074 298Z" fill="white"/>
<path d="M332.561 136.4C310.76 109.376 284.243 81.6072 279.812 75.6191C271.603 64.5242 270.635 48.6869 277.881 44.2633C280.192 42.8518 286.433 47.2422 294.45 54.3934C316.572 74.128 352.215 114.887 356.114 112.763C361.426 109.869 380.26 96.3617 387.504 97.3264C394.748 98.2912 394.265 100.221 400.06 100.221C405.855 100.221 406.338 96.8441 411.65 96.3617C416.963 95.8793 425.655 100.221 430.484 100.221C435.314 100.221 435.314 97.3264 441.109 97.3264C446.904 97.3264 473.413 126.494 486.021 147.977C494.23 161.966 516.377 170.434 522.723 174.508C529.484 178.85 554.893 201.333 584.054 223.712C597.929 234.36 617.309 244.345 628 252.173L541.074 298C523.045 275.649 463.709 239.456 430.484 241C388.953 242.93 382.192 242.525 350.319 228.053C318.446 213.582 279.812 205.381 279.812 197.663C279.812 189.945 281.261 175.956 305.89 179.815C330.519 183.674 350.802 207.311 361.426 189.945C363.755 186.139 361.537 179.044 356.568 170.167M332.561 136.4V168.237C333.007 174.348 334.769 186.665 338.246 187.05C342.592 187.533 354.665 189.462 356.114 182.709C357.273 177.306 356.9 172.096 356.568 170.167M332.561 136.4C342.302 148.474 351.101 160.399 356.568 170.167" stroke="#FD2D46" stroke-width="8"/>
</svg>
