<svg width="770" height="148" viewBox="0 0 770 148" fill="none" xmlns="http://www.w3.org/2000/svg">
<path d="M754.079 0L20.2632 6.09412L0 148H770L754.079 0Z" fill="#FFE231"/>
<path d="M224.347 32.708H257.731M291.115 32.708H257.731M257.731 32.708L248.921 110.604" stroke="#FF0000" stroke-width="10"/>
<path d="M272.568 73.5113C272.568 56.8192 277.669 42.9092 297.143 42.9092C312.907 42.9092 312.907 59.6012 313.835 77.6843C314.762 95.7673 304.561 112.923 292.506 112.923C280.451 112.923 272.568 90.2033 272.568 73.5113Z" stroke="#FF0000" stroke-width="10"/>
<path d="M344.255 110.605V64.7642M344.255 64.7642L315.225 31.7812M344.255 64.7642L360.664 31.7812" stroke="#FF0000" stroke-width="10"/>
<path d="M196.834 70.2657L195.599 111.532C206.108 111.532 227.128 107.545 227.128 91.5945C227.128 75.6443 206.932 70.7294 196.834 70.2657ZM196.834 70.2657L197.917 34.0996C206.263 34.5633 222.955 39.0145 222.955 53.11C222.955 67.2055 205.541 70.4203 196.834 70.2657Z" stroke="#FF0000" stroke-width="10"/>
<path d="M186.789 110.605L161.751 113.851L158.505 72.8159M158.505 72.8159L155.26 31.7812H183.08M158.505 72.8159L177.052 69.802" stroke="#FF0000" stroke-width="10"/>
<path d="M82 32.708L101.474 118.023L109.82 73.0471L128.367 118.023L135.786 32.708" stroke="#FF0000" stroke-width="10"/>
<path d="M228.33 38.6846H261.714M295.098 38.6846H261.714M261.714 38.6846L252.904 116.581" stroke="#0F43F1" stroke-width="10"/>
<path d="M276.553 79.4878C276.553 62.7958 281.653 48.8857 301.127 48.8857C316.892 48.8857 316.892 65.5778 317.819 83.6609C318.747 101.744 308.546 118.9 296.49 118.9C284.435 118.9 276.553 96.1799 276.553 79.4878Z" stroke="#0F43F1" stroke-width="10"/>
<path d="M348.241 116.581V70.7407M348.241 70.7407L319.21 37.7578M348.241 70.7407L364.649 37.7578" stroke="#0F43F1" stroke-width="10"/>
<path d="M200.819 76.2423L199.583 117.509C210.093 117.509 231.112 113.521 231.112 97.571C231.112 81.6208 210.916 76.706 200.819 76.2423ZM200.819 76.2423L201.901 40.0762C210.247 40.5398 226.939 44.9911 226.939 59.0866C226.939 73.1821 209.525 76.3968 200.819 76.2423Z" stroke="#0F43F1" stroke-width="10"/>
<path d="M190.774 116.581L165.735 119.827L162.49 78.7924M162.49 78.7924L159.244 37.7578H187.064M162.49 78.7924L181.037 75.7786" stroke="#0F43F1" stroke-width="10"/>
<path d="M85.9844 38.6846L105.458 124L113.804 79.0237L132.351 124L139.77 38.6846" stroke="#0F43F1" stroke-width="10"/>
<path d="M632 105.034L609.765 108L606.882 70.5M606.882 70.5L604 33H628.706M606.882 70.5L623.353 67.7458" stroke="#FF0000" stroke-width="10"/>
<path d="M508.857 107.239L510.389 69.9657M510.389 69.9657L511.922 32.6921C522.1 32.048 542.231 34.3839 541.331 48.8795C540.43 63.3751 520.328 68.9768 510.389 69.9657ZM510.389 69.9657L538.887 108.316" stroke="#FF0000" stroke-width="10"/>
<path d="M558 39V102C567.876 102 587.894 96.1304 588.961 72.6522C590.029 49.1739 568.765 40.4348 558 39Z" stroke="#FF0000" stroke-width="10"/>
<path d="M462.269 101.611L468.67 74.7892M491.392 102.655L488.764 82.405M488.764 82.405L479.588 29.0346L468.67 74.7892M488.764 82.405L468.67 74.7892" stroke="#FF0000" stroke-width="10"/>
<path d="M439.221 45.4442C438.174 33.7474 430.337 23.9998 421.162 24C415.274 24.0002 398 30.6308 398 50.5156C398 70.4004 401.141 109 421.162 109C437.179 109 448.643 87.9443 443.932 73.5196H432.154" stroke="#FF0000" stroke-width="10"/>
<path d="M644 111V34L686 111L680.628 34" stroke="#FF0000" stroke-width="10"/>
<path d="M639 111.034L616.765 114L613.882 76.5M613.882 76.5L611 39H635.706M613.882 76.5L630.353 73.7458" stroke="#0F43F1" stroke-width="10"/>
<path d="M514.749 113.133L516.281 75.8593M516.281 75.8593L517.813 38.5856C527.991 37.9416 548.123 40.2775 547.222 54.7731C546.322 69.2687 526.22 74.8704 516.281 75.8593ZM516.281 75.8593L544.779 114.209" stroke="#0F43F1" stroke-width="10"/>
<path d="M565 44V107C574.876 107 594.894 101.13 595.961 77.6522C597.029 54.1739 575.765 45.4348 565 44Z" stroke="#0F43F1" stroke-width="10"/>
<path d="M468.161 107.504L474.562 80.6828M497.285 108.548L494.657 88.2985M494.657 88.2985L485.481 34.9282L474.562 80.6828M494.657 88.2985L474.562 80.6828" stroke="#0F43F1" stroke-width="10"/>
<path d="M445.221 50.6965C444.174 38.862 436.337 28.9998 427.162 29C421.274 29.0002 404 35.7089 404 55.8276C404 75.9463 407.141 115 427.162 115C443.179 115 454.643 93.6966 449.932 79.1021H438.154" stroke="#0F43F1" stroke-width="10"/>
<path d="M650 117V40L692 117L686.628 40" stroke="#0F43F1" stroke-width="10"/>
</svg>
