<svg width="770" height="148" viewBox="0 0 770 148" fill="none" xmlns="http://www.w3.org/2000/svg">
<path d="M754.079 0L20.2632 6.09412L0 148H770L754.079 0Z" fill="#FFE231"/>
<path d="M226.347 32.708H259.731M293.115 32.708H259.731M259.731 32.708L250.921 110.604" stroke="#FF0000" stroke-width="10"/>
<path d="M274.568 73.5113C274.568 56.8192 279.669 42.9092 299.143 42.9092C314.907 42.9092 314.907 59.6012 315.835 77.6843C316.762 95.7673 306.561 112.923 294.506 112.923C282.451 112.923 274.568 90.2033 274.568 73.5113Z" stroke="#FF0000" stroke-width="10"/>
<path d="M346.255 110.605V64.7642M346.255 64.7642L317.225 31.7812M346.255 64.7642L362.664 31.7812" stroke="#FF0000" stroke-width="10"/>
<path d="M198.834 70.2657L197.599 111.532C208.108 111.532 229.128 107.545 229.128 91.5945C229.128 75.6443 208.932 70.7294 198.834 70.2657ZM198.834 70.2657L199.917 34.0996C208.263 34.5633 224.955 39.0145 224.955 53.11C224.955 67.2055 207.541 70.4203 198.834 70.2657Z" stroke="#FF0000" stroke-width="10"/>
<path d="M188.789 110.605L163.751 113.851L160.505 72.8159M160.505 72.8159L157.26 31.7812H185.08M160.505 72.8159L179.052 69.802" stroke="#FF0000" stroke-width="10"/>
<path d="M84 32.708L103.474 118.023L111.82 73.0471L130.367 118.023L137.786 32.708" stroke="#FF0000" stroke-width="10"/>
<path d="M230.33 38.6846H263.714M297.098 38.6846H263.714M263.714 38.6846L254.904 116.581" stroke="#0F43F1" stroke-width="10"/>
<path d="M278.553 79.4878C278.553 62.7958 283.653 48.8857 303.127 48.8857C318.892 48.8857 318.892 65.5778 319.819 83.6609C320.747 101.744 310.546 118.9 298.49 118.9C286.435 118.9 278.553 96.1799 278.553 79.4878Z" stroke="#0F43F1" stroke-width="10"/>
<path d="M350.241 116.581V70.7407M350.241 70.7407L321.21 37.7578M350.241 70.7407L366.649 37.7578" stroke="#0F43F1" stroke-width="10"/>
<path d="M202.819 76.2423L201.583 117.509C212.093 117.509 233.112 113.521 233.112 97.571C233.112 81.6208 212.916 76.706 202.819 76.2423ZM202.819 76.2423L203.901 40.0762C212.247 40.5398 228.939 44.9911 228.939 59.0866C228.939 73.1821 211.525 76.3968 202.819 76.2423Z" stroke="#0F43F1" stroke-width="10"/>
<path d="M192.774 116.581L167.735 119.827L164.49 78.7924M164.49 78.7924L161.244 37.7578H189.064M164.49 78.7924L183.037 75.7786" stroke="#0F43F1" stroke-width="10"/>
<path d="M87.9844 38.6846L107.458 124L115.804 79.0237L134.351 124L141.77 38.6846" stroke="#0F43F1" stroke-width="10"/>
<path d="M634 105.034L611.765 108L608.882 70.5M608.882 70.5L606 33H630.706M608.882 70.5L625.353 67.7458" stroke="#FF0000" stroke-width="10"/>
<path d="M510.857 107.239L512.389 69.9657M512.389 69.9657L513.922 32.6921C524.1 32.048 544.231 34.3839 543.331 48.8795C542.43 63.3751 522.328 68.9768 512.389 69.9657ZM512.389 69.9657L540.887 108.316" stroke="#FF0000" stroke-width="10"/>
<path d="M560 39V102C569.876 102 589.894 96.1304 590.961 72.6522C592.029 49.1739 570.765 40.4348 560 39Z" stroke="#FF0000" stroke-width="10"/>
<path d="M464.269 101.611L470.67 74.7892M493.392 102.655L490.764 82.405M490.764 82.405L481.588 29.0346L470.67 74.7892M490.764 82.405L470.67 74.7892" stroke="#FF0000" stroke-width="10"/>
<path d="M441.221 45.4442C440.174 33.7474 432.337 23.9998 423.162 24C417.274 24.0002 400 30.6308 400 50.5156C400 70.4004 403.141 109 423.162 109C439.179 109 450.643 87.9443 445.932 73.5196H434.154" stroke="#FF0000" stroke-width="10"/>
<path d="M646 111V34L688 111L682.628 34" stroke="#FF0000" stroke-width="10"/>
<path d="M641 111.034L618.765 114L615.882 76.5M615.882 76.5L613 39H637.706M615.882 76.5L632.353 73.7458" stroke="#0F43F1" stroke-width="10"/>
<path d="M516.749 113.133L518.281 75.8593M518.281 75.8593L519.813 38.5856C529.991 37.9416 550.123 40.2775 549.222 54.7731C548.322 69.2687 528.22 74.8704 518.281 75.8593ZM518.281 75.8593L546.779 114.209" stroke="#0F43F1" stroke-width="10"/>
<path d="M567 44V107C576.876 107 596.894 101.13 597.961 77.6522C599.029 54.1739 577.765 45.4348 567 44Z" stroke="#0F43F1" stroke-width="10"/>
<path d="M470.161 107.504L476.562 80.6828M499.285 108.548L496.657 88.2985M496.657 88.2985L487.481 34.9282L476.562 80.6828M496.657 88.2985L476.562 80.6828" stroke="#0F43F1" stroke-width="10"/>
<path d="M447.221 50.6965C446.174 38.862 438.337 28.9998 429.162 29C423.274 29.0002 406 35.7089 406 55.8276C406 75.9463 409.141 115 429.162 115C445.179 115 456.643 93.6966 451.932 79.1021H440.154" stroke="#0F43F1" stroke-width="10"/>
<path d="M652 117V40L694 117L688.628 40" stroke="#0F43F1" stroke-width="10"/>
</svg>
