<svg width="770" height="148" viewBox="0 0 770 148" fill="none" xmlns="http://www.w3.org/2000/svg">
<path d="M754.079 0L20.2632 6.09412L0 148H770L754.079 0Z" fill="#FFE231"/>
<path d="M233.347 32.708H266.731M300.115 32.708H266.731M266.731 32.708L257.921 110.604" stroke="#FF0000" stroke-width="10"/>
<path d="M281.568 73.5113C281.568 56.8192 286.669 42.9092 306.143 42.9092C321.907 42.9092 321.907 59.6012 322.835 77.6843C323.762 95.7673 313.561 112.923 301.506 112.923C289.451 112.923 281.568 90.2033 281.568 73.5113Z" stroke="#FF0000" stroke-width="10"/>
<path d="M353.255 110.605V64.7642M353.255 64.7642L324.225 31.7812M353.255 64.7642L369.664 31.7812" stroke="#FF0000" stroke-width="10"/>
<path d="M648.643 112.843L650.443 69.0608M650.443 69.0608L632.793 36.8799M650.443 69.0608L662.446 37.9429" stroke="#FF0000" stroke-width="10"/>
<path d="M418.783 32.6748L410.724 111.247L438.523 112.244" stroke="#FF0000" stroke-width="10"/>
<path d="M449.174 33.7637L447.79 112.575" stroke="#FF0000" stroke-width="10"/>
<path d="M467.104 71.6706L468.776 31C480.823 31.4318 504.752 36.276 504.098 52.1982C503.443 68.1203 479.163 71.814 467.104 71.6706ZM467.104 71.6706L465.433 112.341C477.408 114.504 501.522 114.848 502.177 98.9261C502.831 83.004 479.068 74.1215 467.104 71.6706Z" stroke="#FF0000" stroke-width="10"/>
<path d="M511.051 108.777L512.611 70.8257M512.611 70.8257L514.172 32.8742C526.724 32.2969 551.583 34.8317 550.601 49.5885C549.618 64.3454 524.865 69.8953 512.611 70.8257ZM512.611 70.8257L548.113 110.106" stroke="#FF0000" stroke-width="10"/>
<path d="M592.597 111.7L594.157 73.7485M594.157 73.7485L595.717 35.797C606.081 35.1413 626.578 37.5197 625.661 52.2789C624.744 67.0381 604.277 72.7416 594.157 73.7485ZM594.157 73.7485L623.173 112.796" stroke="#FF0000" stroke-width="10"/>
<path d="M553.607 112.036L560.124 84.7263M583.26 113.099L580.584 92.4805M580.584 92.4805L571.241 38.1397L560.124 84.7263M580.584 92.4805L560.124 84.7263" stroke="#FF0000" stroke-width="10"/>
<path d="M205.834 70.2657L204.599 111.532C215.108 111.532 236.128 107.545 236.128 91.5945C236.128 75.6443 215.932 70.7294 205.834 70.2657ZM205.834 70.2657L206.917 34.0996C215.263 34.5633 231.955 39.0145 231.955 53.11C231.955 67.2055 214.541 70.4203 205.834 70.2657Z" stroke="#FF0000" stroke-width="10"/>
<path d="M195.789 110.605L170.751 113.851L167.505 72.8159M167.505 72.8159L164.26 31.7812H192.08M167.505 72.8159L186.052 69.802" stroke="#FF0000" stroke-width="10"/>
<path d="M91 32.708L110.474 118.023L118.82 73.0471L137.367 118.023L144.786 32.708" stroke="#FF0000" stroke-width="10"/>
<path d="M237.33 38.6846H270.714M304.098 38.6846H270.714M270.714 38.6846L261.904 116.581" stroke="#0F43F1" stroke-width="10"/>
<path d="M285.553 79.4878C285.553 62.7958 290.653 48.8857 310.127 48.8857C325.892 48.8857 325.892 65.5778 326.819 83.6609C327.747 101.744 317.546 118.9 305.49 118.9C293.435 118.9 285.553 96.1799 285.553 79.4878Z" stroke="#0F43F1" stroke-width="10"/>
<path d="M357.241 116.581V70.7407M357.241 70.7407L328.21 37.7578M357.241 70.7407L373.649 37.7578" stroke="#0F43F1" stroke-width="10"/>
<path d="M652.627 118.819L654.427 75.0373M654.427 75.0373L636.777 42.8564M654.427 75.0373L666.43 43.9194" stroke="#0F43F1" stroke-width="10"/>
<path d="M422.768 38.6504L414.708 117.223L442.508 118.219" stroke="#0F43F1" stroke-width="10"/>
<path d="M453.158 39.7402L451.774 118.552" stroke="#0F43F1" stroke-width="10"/>
<path d="M471.088 77.6472L472.76 36.9766C484.806 37.4084 508.736 42.2526 508.081 58.1747C507.427 74.0968 483.146 77.7906 471.088 77.6472ZM471.088 77.6472L469.416 118.318C481.391 120.48 505.506 120.825 506.16 104.903C506.815 88.9805 483.051 80.0981 471.088 77.6472Z" stroke="#0F43F1" stroke-width="10"/>
<path d="M515.036 114.754L516.596 76.8022M516.596 76.8022L518.156 38.8508C530.708 38.2735 555.568 40.8082 554.585 55.5651C553.603 70.3219 528.85 75.8719 516.596 76.8022ZM516.596 76.8022L552.098 116.082" stroke="#0F43F1" stroke-width="10"/>
<path d="M596.582 117.677L598.142 79.7251M598.142 79.7251L599.702 41.7736C610.065 41.1179 630.562 43.4962 629.645 58.2554C628.729 73.0146 608.261 78.7182 598.142 79.7251ZM598.142 79.7251L627.158 118.773" stroke="#0F43F1" stroke-width="10"/>
<path d="M557.591 118.012L564.108 90.7029M587.244 119.075L584.568 98.4571M584.568 98.4571L575.226 44.1162L564.108 90.7029M584.568 98.4571L564.108 90.7029" stroke="#0F43F1" stroke-width="10"/>
<path d="M209.819 76.2413L208.583 117.508C219.093 117.508 240.112 113.52 240.112 97.57C240.112 81.6199 219.916 76.705 209.819 76.2413ZM209.819 76.2413L210.901 40.0752C219.247 40.5389 235.939 44.9901 235.939 59.0856C235.939 73.1811 218.525 76.3959 209.819 76.2413Z" stroke="#0F43F1" stroke-width="10"/>
<path d="M199.774 116.581L174.735 119.827L171.49 78.7924M171.49 78.7924L168.244 37.7578H196.064M171.49 78.7924L190.037 75.7786" stroke="#0F43F1" stroke-width="10"/>
<path d="M94.9844 38.6846L114.458 124L122.804 79.0237L141.351 124L148.77 38.6846" stroke="#0F43F1" stroke-width="10"/>
</svg>
